<?plantuml 1.2026.2?><svg xmlns="http://www.w3.org/2000/svg" xmlns:xlink="http://www.w3.org/1999/xlink" contentStyleType="text/css" data-diagram-type="ACTIVITY" height="286px" preserveAspectRatio="none" style="width:372px;height:286px;background:#FFFFFF;" version="1.1" viewBox="0 0 372 286" width="372px" zoomAndPan="magnify"><title>ipcsShmHardirq Zephyr</title><defs/><g><g class="title" data-source-line="4"><text fill="#000000" font-family="sans-serif" font-size="14" font-weight="bold" lengthAdjust="spacing" textLength="158.7031" x="105.2041" y="34.5332">ipcsShmHardirq Zephyr</text></g><ellipse cx="186.0557" cy="58.6094" fill="#222222" rx="10" ry="10" style="stroke:#222222;stroke-width:1;"/><rect fill="#F1F1F1" height="35.0938" rx="12.5" ry="12.5" style="stroke:#181818;stroke-width:0.5;" width="271.0977" x="50.5068" y="88.6094"/><text fill="#000000" font-family="sans-serif" font-size="12" lengthAdjust="spacing" textLength="251.0977" x="60.5068" y="111.0664">for alive instances irq_disable?(if IRQ!=NONE);</text><rect fill="#F1F1F1" height="35.0938" rx="12.5" ry="12.5" style="stroke:#181818;stroke-width:0.5;" width="350.1113" x="11" y="143.7031"/><text fill="#000000" font-family="sans-serif" font-size="12" lengthAdjust="spacing" textLength="330.1113" x="21" y="166.1602">HwIrqDisable; HwIrqClear; MSG_IS_RECEIVED per instance;</text><rect fill="#F1F1F1" height="35.0938" rx="12.5" ry="12.5" style="stroke:#181818;stroke-width:0.5;" width="206.7324" x="82.6895" y="198.7969"/><text fill="#000000" font-family="sans-serif" font-size="12" lengthAdjust="spacing" textLength="186.7324" x="92.6895" y="221.2539">k_sem_give(&amp;ipc_os_priv.rx_sem);</text><ellipse cx="186.0557" cy="264.8906" fill="none" rx="11" ry="11" style="stroke:#222222;stroke-width:1;"/><ellipse cx="186.0557" cy="264.8906" fill="#222222" rx="6" ry="6" style="stroke:#222222;stroke-width:1;"/><line style="stroke:#181818;stroke-width:1;" x1="186.0557" x2="186.0557" y1="68.6094" y2="88.6094"/><polygon fill="#181818" points="182.0557,78.6094,186.0557,88.6094,190.0557,78.6094,186.0557,82.6094" style="stroke:#181818;stroke-width:1;"/><line style="stroke:#181818;stroke-width:1;" x1="186.0557" x2="186.0557" y1="123.7031" y2="143.7031"/><polygon fill="#181818" points="182.0557,133.7031,186.0557,143.7031,190.0557,133.7031,186.0557,137.7031" style="stroke:#181818;stroke-width:1;"/><line style="stroke:#181818;stroke-width:1;" x1="186.0557" x2="186.0557" y1="178.7969" y2="198.7969"/><polygon fill="#181818" points="182.0557,188.7969,186.0557,198.7969,190.0557,188.7969,186.0557,192.7969" style="stroke:#181818;stroke-width:1;"/><line style="stroke:#181818;stroke-width:1;" x1="186.0557" x2="186.0557" y1="233.8906" y2="253.8906"/><polygon fill="#181818" points="182.0557,243.8906,186.0557,253.8906,190.0557,243.8906,186.0557,247.8906" style="stroke:#181818;stroke-width:1;"/><?plantuml-src JOxBJiD034NtynNk1hKRFg0HOj54D8iMqKWis8nCuZPMvrMFAUJlcHIfOcdVutEzI88dZ-1mYbyAsPDYG9FF718AUkXZ65WvXaudHy0Xyq0reo_xVvZZG3ebWYWwHgEiCvpwt8r-YpAmNE23qZY9oOgYPdsC0kZuUdEMqfuo5CeEdF7JqVEIZz0UtXPF-zTziwegizv-jtAf_-8ARjF64Ke5k-x5jfqzD9kcVMzgI2HtwtnvjfcyFPMovKDvoiPia_3rKNxcO9PdZUaN?></g></svg>