<?plantuml 1.2026.2?><svg xmlns="http://www.w3.org/2000/svg" xmlns:xlink="http://www.w3.org/1999/xlink" contentStyleType="text/css" data-diagram-type="ACTIVITY" height="943px" preserveAspectRatio="none" style="width:633px;height:943px;background:#FFFFFF;" version="1.1" viewBox="0 0 633 943" width="633px" zoomAndPan="magnify"><defs/><g><ellipse cx="309.9617" cy="20" fill="#222222" rx="10" ry="10" style="stroke:#222222;stroke-width:1;"/><rect fill="#F1F1F1" height="35.0938" rx="12.5" ry="12.5" style="stroke:#181818;stroke-width:0.5;" width="43.0156" x="288.4539" y="50"/><text fill="#000000" font-family="sans-serif" font-size="12" lengthAdjust="spacing" textLength="23.0156" x="298.4539" y="72.457">i = 0</text><rect fill="#F1F1F1" height="35.0938" rx="12.5" ry="12.5" style="stroke:#181818;stroke-width:0.5;" width="123.3535" x="248.2849" y="228.7656"/><text fill="#000000" font-family="sans-serif" font-size="12" lengthAdjust="spacing" textLength="103.3535" x="258.2849" y="251.2227">ipcsHwIrqDisable(i)</text><rect fill="#F1F1F1" height="35.0938" rx="12.5" ry="12.5" style="stroke:#181818;stroke-width:0.5;" width="319.7891" x="150.0671" y="283.8594"/><text fill="#000000" font-family="sans-serif" font-size="12" lengthAdjust="spacing" textLength="299.7891" x="160.0671" y="306.3164">instance_id[i].state = IPC_SHM_INSTANCE_DISABLED</text><rect fill="#F1F1F1" height="35.0938" rx="12.5" ry="12.5" style="stroke:#181818;stroke-width:0.5;" width="273.4531" x="173.2351" y="400.7891"/><text fill="#000000" font-family="sans-serif" font-size="12" lengthAdjust="spacing" textLength="253.4531" x="183.2351" y="423.2461">free_irq(instance_id[i].irq_num, &amp;ipc_cdev_priv)</text><rect fill="#F1F1F1" height="35.0938" rx="12.5" ry="12.5" style="stroke:#181818;stroke-width:0.5;" width="115.0508" x="252.4363" y="469.9238"/><text fill="#000000" font-family="sans-serif" font-size="12" lengthAdjust="spacing" textLength="95.0508" x="262.4363" y="492.3809">irq_num_init[i] = 0</text><polygon fill="#F1F1F1" points="309.9617,338.9531,370.1135,357.8711,309.9617,376.7891,249.8098,357.8711" style="stroke:#181818;stroke-width:0.5;"/><text fill="#000000" font-family="sans-serif" font-size="11" lengthAdjust="spacing" textLength="17.1177" x="313.9617" y="388.208">yes</text><text fill="#000000" font-family="sans-serif" font-size="11" lengthAdjust="spacing" textLength="96.3037" x="261.8098" y="362.3721">irq_num_init[i] != 0?</text><polygon fill="#F1F1F1" points="309.9617,525.0176,321.9617,537.0176,309.9617,549.0176,297.9617,537.0176,309.9617,525.0176" style="stroke:#181818;stroke-width:0.5;"/><polygon fill="#F1F1F1" points="309.9617,166.9297,583.9233,185.8477,309.9617,204.7656,36,185.8477" style="stroke:#181818;stroke-width:0.5;"/><text fill="#000000" font-family="sans-serif" font-size="11" lengthAdjust="spacing" textLength="17.1177" x="313.9617" y="216.1846">yes</text><text fill="#000000" font-family="sans-serif" font-size="11" lengthAdjust="spacing" textLength="523.9233" x="48" y="190.3486">(instance_id[i].state != IPC_SHM_INSTANCE_DISABLED) &amp;&amp; (instance_id[i].irq_num != IPC_IRQ_NONE)?</text><polygon fill="#F1F1F1" points="309.9617,569.0176,321.9617,581.0176,309.9617,593.0176,297.9617,581.0176,309.9617,569.0176" style="stroke:#181818;stroke-width:0.5;"/><rect fill="#F1F1F1" height="35.0938" rx="12.5" ry="12.5" style="stroke:#181818;stroke-width:0.5;" width="36.6816" x="291.6208" y="613.0176"/><text fill="#000000" font-family="sans-serif" font-size="12" lengthAdjust="spacing" textLength="16.6816" x="301.6208" y="635.4746">i++</text><polygon fill="#F1F1F1" points="309.9617,105.0938,406.4731,124.0117,309.9617,142.9297,213.4502,124.0117" style="stroke:#181818;stroke-width:0.5;"/><text fill="#000000" font-family="sans-serif" font-size="11" lengthAdjust="spacing" textLength="17.1177" x="313.9617" y="154.3486">yes</text><text fill="#000000" font-family="sans-serif" font-size="11" lengthAdjust="spacing" textLength="169.0229" x="225.4502" y="128.5127">i &lt; IPC_SHM_MAX_INSTANCES?</text><text fill="#000000" font-family="sans-serif" font-size="11" lengthAdjust="spacing" textLength="12.2354" x="201.2148" y="114.6768">no</text><rect fill="#F1F1F1" height="35.0938" rx="12.5" ry="12.5" style="stroke:#181818;stroke-width:0.5;" width="131.3926" x="244.2654" y="690.1113"/><text fill="#000000" font-family="sans-serif" font-size="12" lengthAdjust="spacing" textLength="111.3926" x="254.2654" y="712.5684">cdev_del(&amp;ipc_cdev)</text><rect fill="#F1F1F1" height="35.0938" rx="12.5" ry="12.5" style="stroke:#181818;stroke-width:0.5;" width="250.7715" x="184.5759" y="745.2051"/><text fill="#000000" font-family="sans-serif" font-size="12" lengthAdjust="spacing" textLength="230.7715" x="194.5759" y="767.6621">device_destroy(ipc_class, dev_major_num)</text><rect fill="#F1F1F1" height="35.0938" rx="12.5" ry="12.5" style="stroke:#181818;stroke-width:0.5;" width="150.7109" x="234.6062" y="800.2988"/><text fill="#000000" font-family="sans-serif" font-size="12" lengthAdjust="spacing" textLength="130.7109" x="244.6062" y="822.7559">class_destroy(ipc_class)</text><rect fill="#F1F1F1" height="35.0938" rx="12.5" ry="12.5" style="stroke:#181818;stroke-width:0.5;" width="263.4629" x="178.2302" y="855.3926"/><text fill="#000000" font-family="sans-serif" font-size="12" lengthAdjust="spacing" textLength="243.4629" x="188.2302" y="877.8496">unregister_chrdev_region(dev_major_num, 1)</text><ellipse cx="309.9617" cy="921.4863" fill="none" rx="11" ry="11" style="stroke:#222222;stroke-width:1;"/><ellipse cx="309.9617" cy="921.4863" fill="#222222" rx="6" ry="6" style="stroke:#222222;stroke-width:1;"/><line style="stroke:#181818;stroke-width:1;" x1="309.9617" x2="309.9617" y1="30" y2="50"/><polygon fill="#181818" points="305.9617,40,309.9617,50,313.9617,40,309.9617,44" style="stroke:#181818;stroke-width:1;"/><line style="stroke:#181818;stroke-width:1;" x1="309.9617" x2="309.9617" y1="263.8594" y2="283.8594"/><polygon fill="#181818" points="305.9617,273.8594,309.9617,283.8594,313.9617,273.8594,309.9617,277.8594" style="stroke:#181818;stroke-width:1;"/><line style="stroke:#181818;stroke-width:1;" x1="309.9617" x2="309.9617" y1="435.8828" y2="469.9238"/><polygon fill="#181818" points="305.9617,459.9238,309.9617,469.9238,313.9617,459.9238,309.9617,463.9238" style="stroke:#181818;stroke-width:1;"/><line style="stroke:#181818;stroke-width:1;" x1="309.9617" x2="309.9617" y1="376.7891" y2="400.7891"/><polygon fill="#181818" points="305.9617,390.7891,309.9617,400.7891,313.9617,390.7891,309.9617,394.7891" style="stroke:#181818;stroke-width:1;"/><line style="stroke:#181818;stroke-width:1;" x1="370.1135" x2="456.6882" y1="357.8711" y2="357.8711"/><polygon fill="#181818" points="452.6882,439.9238,456.6882,449.9238,460.6882,439.9238,456.6882,443.9238" style="stroke:#181818;stroke-width:1;"/><line style="stroke:#181818;stroke-width:1;" x1="456.6882" x2="456.6882" y1="357.8711" y2="537.0176"/><line style="stroke:#181818;stroke-width:1;" x1="456.6882" x2="321.9617" y1="537.0176" y2="537.0176"/><polygon fill="#181818" points="331.9617,533.0176,321.9617,537.0176,331.9617,541.0176,327.9617,537.0176" style="stroke:#181818;stroke-width:1;"/><line style="stroke:#181818;stroke-width:1;" x1="309.9617" x2="309.9617" y1="505.0176" y2="525.0176"/><polygon fill="#181818" points="305.9617,515.0176,309.9617,525.0176,313.9617,515.0176,309.9617,519.0176" style="stroke:#181818;stroke-width:1;"/><line style="stroke:#181818;stroke-width:1;" x1="309.9617" x2="309.9617" y1="318.9531" y2="338.9531"/><polygon fill="#181818" points="305.9617,328.9531,309.9617,338.9531,313.9617,328.9531,309.9617,332.9531" style="stroke:#181818;stroke-width:1;"/><line style="stroke:#181818;stroke-width:1;" x1="309.9617" x2="309.9617" y1="204.7656" y2="228.7656"/><polygon fill="#181818" points="305.9617,218.7656,309.9617,228.7656,313.9617,218.7656,309.9617,222.7656" style="stroke:#181818;stroke-width:1;"/><line style="stroke:#181818;stroke-width:1;" x1="583.9233" x2="595.9233" y1="185.8477" y2="185.8477"/><polygon fill="#181818" points="591.9233,362.9121,595.9233,372.9121,599.9233,362.9121,595.9233,366.9121" style="stroke:#181818;stroke-width:1;"/><line style="stroke:#181818;stroke-width:1;" x1="595.9233" x2="595.9233" y1="185.8477" y2="581.0176"/><line style="stroke:#181818;stroke-width:1;" x1="595.9233" x2="321.9617" y1="581.0176" y2="581.0176"/><polygon fill="#181818" points="331.9617,577.0176,321.9617,581.0176,331.9617,585.0176,327.9617,581.0176" style="stroke:#181818;stroke-width:1;"/><line style="stroke:#181818;stroke-width:1;" x1="309.9617" x2="309.9617" y1="549.0176" y2="569.0176"/><polygon fill="#181818" points="305.9617,559.0176,309.9617,569.0176,313.9617,559.0176,309.9617,563.0176" style="stroke:#181818;stroke-width:1;"/><line style="stroke:#181818;stroke-width:1;" x1="309.9617" x2="309.9617" y1="593.0176" y2="613.0176"/><polygon fill="#181818" points="305.9617,603.0176,309.9617,613.0176,313.9617,603.0176,309.9617,607.0176" style="stroke:#181818;stroke-width:1;"/><line style="stroke:#181818;stroke-width:1;" x1="309.9617" x2="309.9617" y1="142.9297" y2="166.9297"/><polygon fill="#181818" points="305.9617,156.9297,309.9617,166.9297,313.9617,156.9297,309.9617,160.9297" style="stroke:#181818;stroke-width:1;"/><line style="stroke:#181818;stroke-width:1;" x1="309.9617" x2="309.9617" y1="648.1113" y2="658.1113"/><line style="stroke:#181818;stroke-width:1;" x1="309.9617" x2="607.9233" y1="658.1113" y2="658.1113"/><polygon fill="#181818" points="603.9233,399.041,607.9233,389.041,611.9233,399.041,607.9233,395.041" style="stroke:#181818;stroke-width:1;"/><line style="stroke:#181818;stroke-width:1;" x1="607.9233" x2="607.9233" y1="124.0117" y2="658.1113"/><line style="stroke:#181818;stroke-width:1;" x1="607.9233" x2="406.4731" y1="124.0117" y2="124.0117"/><polygon fill="#181818" points="416.4731,120.0117,406.4731,124.0117,416.4731,128.0117,412.4731,124.0117" style="stroke:#181818;stroke-width:1;"/><line style="stroke:#181818;stroke-width:1;" x1="213.4502" x2="24" y1="124.0117" y2="124.0117"/><polygon fill="#181818" points="20,385.041,24,395.041,28,385.041,24,389.041" style="stroke:#181818;stroke-width:1;"/><line style="stroke:#181818;stroke-width:1;" x1="24" x2="24" y1="124.0117" y2="670.1113"/><line style="stroke:#181818;stroke-width:1;" x1="24" x2="309.9617" y1="670.1113" y2="670.1113"/><line style="stroke:#181818;stroke-width:1;" x1="309.9617" x2="309.9617" y1="670.1113" y2="690.1113"/><polygon fill="#181818" points="305.9617,680.1113,309.9617,690.1113,313.9617,680.1113,309.9617,684.1113" style="stroke:#181818;stroke-width:1;"/><line style="stroke:#181818;stroke-width:1;" x1="309.9617" x2="309.9617" y1="85.0938" y2="105.0938"/><polygon fill="#181818" points="305.9617,95.0938,309.9617,105.0938,313.9617,95.0938,309.9617,99.0938" style="stroke:#181818;stroke-width:1;"/><line style="stroke:#181818;stroke-width:1;" x1="309.9617" x2="309.9617" y1="725.2051" y2="745.2051"/><polygon fill="#181818" points="305.9617,735.2051,309.9617,745.2051,313.9617,735.2051,309.9617,739.2051" style="stroke:#181818;stroke-width:1;"/><line style="stroke:#181818;stroke-width:1;" x1="309.9617" x2="309.9617" y1="780.2988" y2="800.2988"/><polygon fill="#181818" points="305.9617,790.2988,309.9617,800.2988,313.9617,790.2988,309.9617,794.2988" style="stroke:#181818;stroke-width:1;"/><line style="stroke:#181818;stroke-width:1;" x1="309.9617" x2="309.9617" y1="835.3926" y2="855.3926"/><polygon fill="#181818" points="305.9617,845.3926,309.9617,855.3926,313.9617,845.3926,309.9617,849.3926" style="stroke:#181818;stroke-width:1;"/><line style="stroke:#181818;stroke-width:1;" x1="309.9617" x2="309.9617" y1="890.4863" y2="910.4863"/><polygon fill="#181818" points="305.9617,900.4863,309.9617,910.4863,313.9617,900.4863,309.9617,904.4863" style="stroke:#181818;stroke-width:1;"/><?plantuml-src VP5TJy8m58RlzokEDsGBnE3ja1Xa92oH-J4lJ8nfwdPWHxTsj0MoVsyx1ogeLytfUJ-UhMUrugkAGyaRkJ6WApHSS4-_awYvuXLaKkHaI8hKD2K22KqvHiGhU_zDLf90qzG8Kfb2UjfmPRoGO0p3aRSho5fzWak8xwOidI_OOlB4uYHzd2JJMNeL06dm6zI11q1By7tROq4oP9G_qykv7Gp2sVZWttjP5AUJwvjP542l1ySsKcicDjNU63_Si-GscGMsq1Ge3fK08TMPdkzYjOv8yzSIVGf6tUOtb7z8FctkAxfwHeACjJgCuMcrhLWgjF5g_GV_07eMZsKvRbcjQDkHERQZXlPtkmtQLrjwNsT8_Vx8irFt5a86NjW6vbZwXtYR7Dg3B46EsYZP-Esgv5eFmCah_YQLwtJIzlvKwLOReN15sg1YMQ6SqyrI-3z21d1XnTh8-WC0?></g></svg>