<?plantuml 1.2026.2?><svg xmlns="http://www.w3.org/2000/svg" xmlns:xlink="http://www.w3.org/1999/xlink" contentStyleType="text/css" data-diagram-type="ACTIVITY" height="358px" preserveAspectRatio="none" style="width:299px;height:358px;background:#FFFFFF;" version="1.1" viewBox="0 0 299 358" width="299px" zoomAndPan="magnify"><defs/><g><ellipse cx="149.8857" cy="20" fill="#222222" rx="10" ry="10" style="stroke:#222222;stroke-width:1;"/><rect fill="#F1F1F1" height="35.0938" rx="12.5" ry="12.5" style="stroke:#181818;stroke-width:0.5;" width="101.3516" x="99.21" y="50"/><text fill="#000000" font-family="sans-serif" font-size="12" lengthAdjust="spacing" textLength="81.3516" x="109.21" y="72.457">User ipcsOsInit</text><rect fill="#F1F1F1" height="35.0938" rx="12.5" ry="12.5" style="stroke:#181818;stroke-width:0.5;" width="271.4492" x="14.1611" y="105.0938"/><text fill="#000000" font-family="sans-serif" font-size="12" lengthAdjust="spacing" textLength="251.4492" x="24.1611" y="127.5508">Load ipc-shm-cdev.ko; open /dev/ipc-shm-cdev</text><rect fill="#F1F1F1" height="35.0938" rx="12.5" ry="12.5" style="stroke:#181818;stroke-width:0.5;" width="185.3926" x="57.1895" y="160.1875"/><text fill="#000000" font-family="sans-serif" font-size="12" lengthAdjust="spacing" textLength="165.3926" x="67.1895" y="182.6445">mmap SHM; create Rx pthread</text><rect fill="#F1F1F1" height="35.0938" rx="12.5" ry="12.5" style="stroke:#181818;stroke-width:0.5;" width="239.0469" x="30.3623" y="215.2813"/><text fill="#000000" font-family="sans-serif" font-size="12" lengthAdjust="spacing" textLength="219.0469" x="40.3623" y="237.7383">ioctl SET_INSTANCE + INIT_INSTANCE</text><rect fill="#F1F1F1" height="35.0938" rx="12.5" ry="12.5" style="stroke:#181818;stroke-width:0.5;" width="277.7715" x="11" y="270.375"/><text fill="#000000" font-family="sans-serif" font-size="12" lengthAdjust="spacing" textLength="257.7715" x="21" y="292.832">Kernel ipcsCdevOsInit -&gt; ipcsHwInit; request_irq</text><ellipse cx="149.8857" cy="336.4688" fill="none" rx="11" ry="11" style="stroke:#222222;stroke-width:1;"/><ellipse cx="149.8857" cy="336.4688" fill="#222222" rx="6" ry="6" style="stroke:#222222;stroke-width:1;"/><line style="stroke:#181818;stroke-width:1;" x1="149.8857" x2="149.8857" y1="30" y2="50"/><polygon fill="#181818" points="145.8857,40,149.8857,50,153.8857,40,149.8857,44" style="stroke:#181818;stroke-width:1;"/><line style="stroke:#181818;stroke-width:1;" x1="149.8857" x2="149.8857" y1="85.0938" y2="105.0938"/><polygon fill="#181818" points="145.8857,95.0938,149.8857,105.0938,153.8857,95.0938,149.8857,99.0938" style="stroke:#181818;stroke-width:1;"/><line style="stroke:#181818;stroke-width:1;" x1="149.8857" x2="149.8857" y1="140.1875" y2="160.1875"/><polygon fill="#181818" points="145.8857,150.1875,149.8857,160.1875,153.8857,150.1875,149.8857,154.1875" style="stroke:#181818;stroke-width:1;"/><line style="stroke:#181818;stroke-width:1;" x1="149.8857" x2="149.8857" y1="195.2813" y2="215.2813"/><polygon fill="#181818" points="145.8857,205.2813,149.8857,215.2813,153.8857,205.2813,149.8857,209.2813" style="stroke:#181818;stroke-width:1;"/><line style="stroke:#181818;stroke-width:1;" x1="149.8857" x2="149.8857" y1="250.375" y2="270.375"/><polygon fill="#181818" points="145.8857,260.375,149.8857,270.375,153.8857,260.375,149.8857,264.375" style="stroke:#181818;stroke-width:1;"/><line style="stroke:#181818;stroke-width:1;" x1="149.8857" x2="149.8857" y1="305.4688" y2="325.4688"/><polygon fill="#181818" points="145.8857,315.4688,149.8857,325.4688,153.8857,315.4688,149.8857,319.4688" style="stroke:#181818;stroke-width:1;"/><?plantuml-src JOv1JyCm38Nl_HNcF9NTLma9ZKchO4MYupnPYKMj9N7cU43_FQ4SsCtllK_MTvSLFo92m5ck1YMIOSAcd3bbL8pW97asbZJQ70Wu5VRqn1XhVuC5JcHp9X2rIPfYgDPitWifS7RbjVI9hMisBuB-jsdB55ldwVF-B1r8fWJhcjQtKyLZn0pZ_j21Kq8ZUFk6R5EzVLrPd0KOTyTJFup7ns6xWnNqG_-VA_HCcYWi5jlwzCy4seUbsNyjNg1qkLAn4-kbg_AIVm00?></g></svg>