<?plantuml 1.2026.2?><svg xmlns="http://www.w3.org/2000/svg" xmlns:xlink="http://www.w3.org/1999/xlink" contentStyleType="text/css" data-diagram-type="ACTIVITY" height="598px" preserveAspectRatio="none" style="width:290px;height:598px;background:#FFFFFF;" version="1.1" viewBox="0 0 290 598" width="290px" zoomAndPan="magnify"><defs/><g><ellipse cx="145.0957" cy="20" fill="#222222" rx="10" ry="10" style="stroke:#222222;stroke-width:1;"/><rect fill="#F1F1F1" height="35.0938" rx="12.5" ry="12.5" style="stroke:#181818;stroke-width:0.5;" width="155.7441" x="67.2236" y="50"/><text fill="#000000" font-family="sans-serif" font-size="12" lengthAdjust="spacing" textLength="135.7441" x="77.2236" y="72.457">err = alloc_chrdev_region</text><rect fill="#F1F1F1" height="35.0938" rx="12.5" ry="12.5" style="stroke:#181818;stroke-width:0.5;" width="69.3477" x="110.4219" y="166.9297"/><text fill="#000000" font-family="sans-serif" font-size="12" lengthAdjust="spacing" textLength="49.3477" x="120.4219" y="189.3867">return err</text><ellipse cx="145.0957" cy="237.5176" fill="none" rx="11" ry="11" style="stroke:#222222;stroke-width:1;"/><ellipse cx="145.0957" cy="237.5176" fill="#222222" rx="6" ry="6" style="stroke:#222222;stroke-width:1;"/><polygon fill="#F1F1F1" points="145.0957,105.0938,177.7314,124.0117,145.0957,142.9297,112.46,124.0117" style="stroke:#181818;stroke-width:0.5;"/><text fill="#000000" font-family="sans-serif" font-size="11" lengthAdjust="spacing" textLength="17.1177" x="149.0957" y="154.3486">yes</text><text fill="#000000" font-family="sans-serif" font-size="11" lengthAdjust="spacing" textLength="41.2715" x="124.46" y="128.5127">err != 0?</text><rect fill="#F1F1F1" height="35.0938" rx="12.5" ry="12.5" style="stroke:#181818;stroke-width:0.5;" width="200.1055" x="45.043" y="290.5176"/><text fill="#000000" font-family="sans-serif" font-size="12" lengthAdjust="spacing" textLength="180.1055" x="55.043" y="312.9746">class_create; cdev_init; cdev_add</text><rect fill="#F1F1F1" height="35.0938" rx="12.5" ry="12.5" style="stroke:#181818;stroke-width:0.5;" width="200.0703" x="45.0605" y="345.6113"/><text fill="#000000" font-family="sans-serif" font-size="12" lengthAdjust="spacing" textLength="180.0703" x="55.0605" y="368.0684">device_create(/dev/ipc-shm-cdev)</text><rect fill="#F1F1F1" height="35.0938" rx="12.5" ry="12.5" style="stroke:#181818;stroke-width:0.5;" width="268.1914" x="11" y="400.7051"/><text fill="#000000" font-family="sans-serif" font-size="12" lengthAdjust="spacing" textLength="248.1914" x="21" y="423.1621">dev_is_opened = 0; wait_queue_flag = SLEEP</text><rect fill="#F1F1F1" height="35.0938" rx="12.5" ry="12.5" style="stroke:#181818;stroke-width:0.5;" width="207.4707" x="41.3604" y="455.7988"/><text fill="#000000" font-family="sans-serif" font-size="12" lengthAdjust="spacing" textLength="187.4707" x="51.3604" y="478.2559">init_waitqueue_head(&amp;wait_queue)</text><rect fill="#F1F1F1" height="35.0938" rx="12.5" ry="12.5" style="stroke:#181818;stroke-width:0.5;" width="61.3555" x="114.418" y="510.8926"/><text fill="#000000" font-family="sans-serif" font-size="12" lengthAdjust="spacing" textLength="41.3555" x="124.418" y="533.3496">return 0</text><ellipse cx="145.0957" cy="576.9863" fill="none" rx="11" ry="11" style="stroke:#222222;stroke-width:1;"/><ellipse cx="145.0957" cy="576.9863" fill="#222222" rx="6" ry="6" style="stroke:#222222;stroke-width:1;"/><line style="stroke:#181818;stroke-width:1;" x1="145.0957" x2="145.0957" y1="30" y2="50"/><polygon fill="#181818" points="141.0957,40,145.0957,50,149.0957,40,145.0957,44" style="stroke:#181818;stroke-width:1;"/><line style="stroke:#181818;stroke-width:1;" x1="145.0957" x2="145.0957" y1="202.0234" y2="226.5176"/><polygon fill="#181818" points="141.0957,216.5176,145.0957,226.5176,149.0957,216.5176,145.0957,220.5176" style="stroke:#181818;stroke-width:1;"/><line style="stroke:#181818;stroke-width:1;" x1="145.0957" x2="145.0957" y1="142.9297" y2="166.9297"/><polygon fill="#181818" points="141.0957,156.9297,145.0957,166.9297,149.0957,156.9297,145.0957,160.9297" style="stroke:#181818;stroke-width:1;"/><line style="stroke:#181818;stroke-width:1;" x1="177.7314" x2="189.7695" y1="124.0117" y2="124.0117"/><polygon fill="#181818" points="185.7695,196.5176,189.7695,206.5176,193.7695,196.5176,189.7695,200.5176" style="stroke:#181818;stroke-width:1;"/><line style="stroke:#181818;stroke-width:1;" x1="189.7695" x2="189.7695" y1="124.0117" y2="270.5176"/><line style="stroke:#181818;stroke-width:1;" x1="189.7695" x2="145.0957" y1="270.5176" y2="270.5176"/><line style="stroke:#181818;stroke-width:1;" x1="145.0957" x2="145.0957" y1="270.5176" y2="290.5176"/><polygon fill="#181818" points="141.0957,280.5176,145.0957,290.5176,149.0957,280.5176,145.0957,284.5176" style="stroke:#181818;stroke-width:1;"/><line style="stroke:#181818;stroke-width:1;" x1="145.0957" x2="145.0957" y1="85.0938" y2="105.0938"/><polygon fill="#181818" points="141.0957,95.0938,145.0957,105.0938,149.0957,95.0938,145.0957,99.0938" style="stroke:#181818;stroke-width:1;"/><line style="stroke:#181818;stroke-width:1;" x1="145.0957" x2="145.0957" y1="325.6113" y2="345.6113"/><polygon fill="#181818" points="141.0957,335.6113,145.0957,345.6113,149.0957,335.6113,145.0957,339.6113" style="stroke:#181818;stroke-width:1;"/><line style="stroke:#181818;stroke-width:1;" x1="145.0957" x2="145.0957" y1="380.7051" y2="400.7051"/><polygon fill="#181818" points="141.0957,390.7051,145.0957,400.7051,149.0957,390.7051,145.0957,394.7051" style="stroke:#181818;stroke-width:1;"/><line style="stroke:#181818;stroke-width:1;" x1="145.0957" x2="145.0957" y1="435.7988" y2="455.7988"/><polygon fill="#181818" points="141.0957,445.7988,145.0957,455.7988,149.0957,445.7988,145.0957,449.7988" style="stroke:#181818;stroke-width:1;"/><line style="stroke:#181818;stroke-width:1;" x1="145.0957" x2="145.0957" y1="490.8926" y2="510.8926"/><polygon fill="#181818" points="141.0957,500.8926,145.0957,510.8926,149.0957,500.8926,145.0957,504.8926" style="stroke:#181818;stroke-width:1;"/><line style="stroke:#181818;stroke-width:1;" x1="145.0957" x2="145.0957" y1="545.9863" y2="565.9863"/><polygon fill="#181818" points="141.0957,555.9863,145.0957,565.9863,149.0957,555.9863,145.0957,559.9863" style="stroke:#181818;stroke-width:1;"/><?plantuml-src JOwnRiCm34HtVGMp1FOGnBE5e4kpTIYG3n08YRQ9of8gqGtyzvKG0-t6ktiutYbbd5S4ZtlS1CfAWW5L-UAGCECADWR7mZ4yPFS470exUcTSg_yFynn8zaGGionH5S4iQgISuGReVRJ6BjdHZyaqrpAjU8AknQSR36yzo481kfrAhm36JBBb03NNLHQ9IL6TCQdHUYp5s4mefC6sHWuinudEQJNMYoqTK7Ujyih9NigoNXhLln33nSH4WLoTE6Xu8elvtcWZCtcSg_dukDy_AzmUc1Q_qeNGTUS_lFKTWmUjsjXV?></g></svg>