<svg xmlns="http://www.w3.org/2000/svg" xmlns:xlink="http://www.w3.org/1999/xlink" contentStyleType="text/css" height="804px" preserveAspectRatio="none" style="width:461px;height:804px;background:#FFFFFF;" version="1.1" viewBox="0 0 461 804" width="461px" zoomAndPan="magnify"><defs/><g><ellipse cx="230.9268" cy="20" fill="#222222" rx="10" ry="10" style="stroke:#222222;stroke-width:1;"/><rect fill="#F1F1F1" height="35.0938" rx="12.5" ry="12.5" style="stroke:#181818;stroke-width:0.5;" width="320.7734" x="70.54" y="50"/><text fill="#000000" font-family="sans-serif" font-size="12" lengthAdjust="spacing" textLength="300.7734" x="80.54" y="72.457">tx_event_flags_set(QUIT_REQ_EVENT_FLAG, TX_OR)</text><rect fill="#F1F1F1" height="35.0938" rx="12.5" ry="12.5" style="stroke:#181818;stroke-width:0.5;" width="439.8535" x="11" y="105.0938"/><text fill="#000000" font-family="sans-serif" font-size="12" lengthAdjust="spacing" textLength="419.8535" x="21" y="127.5508">tx_event_flags_get(QUIT_ACK_EVENT_FLAG, TX_OR_CLEAR, timeout=100)</text><rect fill="#F1F1F1" height="35.0938" rx="12.5" ry="12.5" style="stroke:#181818;stroke-width:0.5;" width="165.3828" x="148.2354" y="160.1875"/><text fill="#000000" font-family="sans-serif" font-size="12" lengthAdjust="spacing" textLength="145.3828" x="158.2354" y="182.6445">ipcsHwIrqDisable(instance)</text><rect fill="#F1F1F1" height="35.0938" rx="12.5" ry="12.5" style="stroke:#181818;stroke-width:0.5;" width="184.4082" x="138.7227" y="215.2813"/><text fill="#000000" font-family="sans-serif" font-size="12" lengthAdjust="spacing" textLength="164.4082" x="148.7227" y="237.7383">id[instance].rxCallback = NULL</text><rect fill="#F1F1F1" height="35.0938" rx="12.5" ry="12.5" style="stroke:#181818;stroke-width:0.5;" width="310.4492" x="75.7021" y="270.375"/><text fill="#000000" font-family="sans-serif" font-size="12" lengthAdjust="spacing" textLength="290.4492" x="85.7021" y="292.832">id[instance].state = IPC_SHM_INSTANCE_DISABLED</text><rect fill="#F1F1F1" height="35.0938" rx="12.5" ry="12.5" style="stroke:#181818;stroke-width:0.5;" width="121.7188" x="170.0674" y="449.1406"/><text fill="#000000" font-family="sans-serif" font-size="12" lengthAdjust="spacing" textLength="101.7188" x="180.0674" y="471.5977">taskIsInitialized = 0</text><rect fill="#F1F1F1" height="35.0938" rx="12.5" ry="12.5" style="stroke:#181818;stroke-width:0.5;" width="214.0977" x="123.8779" y="504.2344"/><text fill="#000000" font-family="sans-serif" font-size="12" lengthAdjust="spacing" textLength="194.0977" x="133.8779" y="526.6914">tx_thread_terminate(&amp;softIrqHandle)</text><rect fill="#F1F1F1" height="35.0938" rx="12.5" ry="12.5" style="stroke:#181818;stroke-width:0.5;" width="196.7715" x="132.541" y="573.3691"/><text fill="#000000" font-family="sans-serif" font-size="12" lengthAdjust="spacing" textLength="176.7715" x="142.541" y="595.8262">tx_thread_delete(&amp;softIrqHandle)</text><rect fill="#F1F1F1" height="35.0938" rx="12.5" ry="12.5" style="stroke:#181818;stroke-width:0.5;" width="222.7813" x="119.5361" y="628.4629"/><text fill="#000000" font-family="sans-serif" font-size="12" lengthAdjust="spacing" textLength="202.7813" x="129.5361" y="650.9199">tx_event_flags_delete(&amp;softIrqEvents)</text><polygon fill="#F1F1F1" points="230.9268,387.3047,294.1348,406.2227,230.9268,425.1406,167.7188,406.2227" style="stroke:#181818;stroke-width:0.5;"/><text fill="#000000" font-family="sans-serif" font-size="11" lengthAdjust="spacing" textLength="17.1177" x="234.9268" y="436.5596">yes</text><text fill="#000000" font-family="sans-serif" font-size="11" lengthAdjust="spacing" textLength="102.416" x="179.7188" y="410.7236">taskIsInitialized != 0?</text><text fill="#000000" font-family="sans-serif" font-size="11" lengthAdjust="spacing" textLength="12.2354" x="294.1348" y="396.8877">no</text><polygon fill="#F1F1F1" points="230.9268,683.5566,242.9268,695.5566,230.9268,707.5566,218.9268,695.5566,230.9268,683.5566" style="stroke:#181818;stroke-width:0.5;"/><polygon fill="#F1F1F1" points="230.9268,325.4688,346.699,344.3867,230.9268,363.3047,115.1545,344.3867" style="stroke:#181818;stroke-width:0.5;"/><text fill="#000000" font-family="sans-serif" font-size="11" lengthAdjust="spacing" textLength="17.1177" x="234.9268" y="374.7236">yes</text><text fill="#000000" font-family="sans-serif" font-size="11" lengthAdjust="spacing" textLength="207.5444" x="127.1545" y="348.8877">id[instance].rxIrqNum != IPC_IRQ_NONE?</text><text fill="#000000" font-family="sans-serif" font-size="11" lengthAdjust="spacing" textLength="12.2354" x="346.699" y="335.0518">no</text><polygon fill="#F1F1F1" points="230.9268,727.5566,242.9268,739.5566,230.9268,751.5566,218.9268,739.5566,230.9268,727.5566" style="stroke:#181818;stroke-width:0.5;"/><ellipse cx="230.9268" cy="782.5566" fill="none" rx="11" ry="11" style="stroke:#222222;stroke-width:1;"/><ellipse cx="230.9268" cy="782.5566" fill="#222222" rx="6" ry="6" style="stroke:#222222;stroke-width:1;"/><line style="stroke:#181818;stroke-width:1;" x1="230.9268" x2="230.9268" y1="30" y2="50"/><polygon fill="#181818" points="226.9268,40,230.9268,50,234.9268,40,230.9268,44" style="stroke:#181818;stroke-width:1;"/><line style="stroke:#181818;stroke-width:1;" x1="230.9268" x2="230.9268" y1="85.0938" y2="105.0938"/><polygon fill="#181818" points="226.9268,95.0938,230.9268,105.0938,234.9268,95.0938,230.9268,99.0938" style="stroke:#181818;stroke-width:1;"/><line style="stroke:#181818;stroke-width:1;" x1="230.9268" x2="230.9268" y1="140.1875" y2="160.1875"/><polygon fill="#181818" points="226.9268,150.1875,230.9268,160.1875,234.9268,150.1875,230.9268,154.1875" style="stroke:#181818;stroke-width:1;"/><line style="stroke:#181818;stroke-width:1;" x1="230.9268" x2="230.9268" y1="195.2813" y2="215.2813"/><polygon fill="#181818" points="226.9268,205.2813,230.9268,215.2813,234.9268,205.2813,230.9268,209.2813" style="stroke:#181818;stroke-width:1;"/><line style="stroke:#181818;stroke-width:1;" x1="230.9268" x2="230.9268" y1="250.375" y2="270.375"/><polygon fill="#181818" points="226.9268,260.375,230.9268,270.375,234.9268,260.375,230.9268,264.375" style="stroke:#181818;stroke-width:1;"/><line style="stroke:#181818;stroke-width:1;" x1="230.9268" x2="230.9268" y1="484.2344" y2="504.2344"/><polygon fill="#181818" points="226.9268,494.2344,230.9268,504.2344,234.9268,494.2344,230.9268,498.2344" style="stroke:#181818;stroke-width:1;"/><line style="stroke:#181818;stroke-width:1;" x1="230.9268" x2="230.9268" y1="539.3281" y2="573.3691"/><polygon fill="#181818" points="226.9268,563.3691,230.9268,573.3691,234.9268,563.3691,230.9268,567.3691" style="stroke:#181818;stroke-width:1;"/><line style="stroke:#181818;stroke-width:1;" x1="230.9268" x2="230.9268" y1="608.4629" y2="628.4629"/><polygon fill="#181818" points="226.9268,618.4629,230.9268,628.4629,234.9268,618.4629,230.9268,622.4629" style="stroke:#181818;stroke-width:1;"/><line style="stroke:#181818;stroke-width:1;" x1="230.9268" x2="230.9268" y1="425.1406" y2="449.1406"/><polygon fill="#181818" points="226.9268,439.1406,230.9268,449.1406,234.9268,439.1406,230.9268,443.1406" style="stroke:#181818;stroke-width:1;"/><line style="stroke:#181818;stroke-width:1;" x1="294.1348" x2="352.3174" y1="406.2227" y2="406.2227"/><polygon fill="#181818" points="348.3174,543.3691,352.3174,553.3691,356.3174,543.3691,352.3174,547.3691" style="stroke:#181818;stroke-width:1;"/><line style="stroke:#181818;stroke-width:1;" x1="352.3174" x2="352.3174" y1="406.2227" y2="695.5566"/><line style="stroke:#181818;stroke-width:1;" x1="352.3174" x2="242.9268" y1="695.5566" y2="695.5566"/><polygon fill="#181818" points="252.9268,691.5566,242.9268,695.5566,252.9268,699.5566,248.9268,695.5566" style="stroke:#181818;stroke-width:1;"/><line style="stroke:#181818;stroke-width:1;" x1="230.9268" x2="230.9268" y1="663.5566" y2="683.5566"/><polygon fill="#181818" points="226.9268,673.5566,230.9268,683.5566,234.9268,673.5566,230.9268,677.5566" style="stroke:#181818;stroke-width:1;"/><line style="stroke:#181818;stroke-width:1;" x1="230.9268" x2="230.9268" y1="363.3047" y2="387.3047"/><polygon fill="#181818" points="226.9268,377.3047,230.9268,387.3047,234.9268,377.3047,230.9268,381.3047" style="stroke:#181818;stroke-width:1;"/><line style="stroke:#181818;stroke-width:1;" x1="346.699" x2="374.3174" y1="344.3867" y2="344.3867"/><polygon fill="#181818" points="370.3174,536.4512,374.3174,546.4512,378.3174,536.4512,374.3174,540.4512" style="stroke:#181818;stroke-width:1;"/><line style="stroke:#181818;stroke-width:1;" x1="374.3174" x2="374.3174" y1="344.3867" y2="739.5566"/><line style="stroke:#181818;stroke-width:1;" x1="374.3174" x2="242.9268" y1="739.5566" y2="739.5566"/><polygon fill="#181818" points="252.9268,735.5566,242.9268,739.5566,252.9268,743.5566,248.9268,739.5566" style="stroke:#181818;stroke-width:1;"/><line style="stroke:#181818;stroke-width:1;" x1="230.9268" x2="230.9268" y1="707.5566" y2="727.5566"/><polygon fill="#181818" points="226.9268,717.5566,230.9268,727.5566,234.9268,717.5566,230.9268,721.5566" style="stroke:#181818;stroke-width:1;"/><line style="stroke:#181818;stroke-width:1;" x1="230.9268" x2="230.9268" y1="305.4688" y2="325.4688"/><polygon fill="#181818" points="226.9268,315.4688,230.9268,325.4688,234.9268,315.4688,230.9268,319.4688" style="stroke:#181818;stroke-width:1;"/><line style="stroke:#181818;stroke-width:1;" x1="230.9268" x2="230.9268" y1="751.5566" y2="771.5566"/><polygon fill="#181818" points="226.9268,761.5566,230.9268,771.5566,234.9268,761.5566,230.9268,765.5566" style="stroke:#181818;stroke-width:1;"/><!--SRC=[VP9VJy8m5CNVzoakBsOanE0hX9WvfYpE8V-CYJ7DPRk3XgwRwqN1Jsy74ib8V6hkFR_JdjksLLQuoX4KxeijWyc9KQDZDbANM64EIQ5JoRBGCzuh0gcDJ6aeCRVzCqn9JRml2OgAruLZ62jsUhmJz4cQHQPmPOGXTYUBS2wcmKG4Bq4y5_UHzz21-QiOJzlz2yFgPF3ynqk3yAF0ctQ0PKus_E2cswtta6LYHbzXzJ6K1fUAN9lP3fNGGKpVJkNxTRNpKQab9XiOGBo8eYPWLoQhXS- -c8sUH1ZFvbxi1s8OphoxA1Zs7Pc1szZK7XrlSsWTVU5q8k9n7DosWTUamTsJQJi0jP7HR48JQdl1gEGtfRMfsoG1UfUWvVg_saxmkY9C1LELIsqZkrUcoDZc6A5ELJruWqn9qN_O-ICqsA2Mp84bPGXSNTGXoNwJpFdh76l3HVa3]--></g></svg>