<?plantuml 1.2026.2?><svg xmlns="http://www.w3.org/2000/svg" xmlns:xlink="http://www.w3.org/1999/xlink" contentStyleType="text/css" data-diagram-type="ACTIVITY" height="309px" preserveAspectRatio="none" style="width:518px;height:309px;background:#FFFFFF;" version="1.1" viewBox="0 0 518 309" width="518px" zoomAndPan="magnify"><title>ipcsHwFlushCacheLocal</title><defs/><g><g class="title" data-source-line="4"><text fill="#000000" font-family="sans-serif" font-size="14" font-weight="bold" lengthAdjust="spacing" textLength="164.9307" x="175.4517" y="34.5332">ipcsHwFlushCacheLocal</text></g><ellipse cx="331.2749" cy="58.6094" fill="#222222" rx="10" ry="10" style="stroke:#222222;stroke-width:1;"/><polygon fill="#F1F1F1" points="331.2749,88.6094,429.1802,107.5273,331.2749,126.4453,233.3696,107.5273" style="stroke:#181818;stroke-width:0.5;"/><text fill="#000000" font-family="sans-serif" font-size="11" lengthAdjust="spacing" textLength="171.8105" x="245.3696" y="112.0283">IPC_D_CACHE_ENABLE defined?</text><text fill="#000000" font-family="sans-serif" font-size="11" lengthAdjust="spacing" textLength="17.1177" x="216.252" y="98.1924">yes</text><text fill="#000000" font-family="sans-serif" font-size="11" lengthAdjust="spacing" textLength="12.2354" x="429.1802" y="103.1924">no</text><rect fill="#F1F1F1" height="35.0938" rx="12.5" ry="12.5" style="stroke:#181818;stroke-width:0.5;" width="382.1328" x="11" y="136.4453"/><text fill="#000000" font-family="sans-serif" font-size="12" lengthAdjust="spacing" textLength="362.1328" x="21" y="158.9023">addr from ipcsOsGetLocalShm; size/temp from shm_size alignment;</text><rect fill="#F1F1F1" height="35.0938" rx="12.5" ry="12.5" style="stroke:#181818;stroke-width:0.5;" width="236.0762" x="84.0283" y="191.5391"/><text fill="#000000" font-family="sans-serif" font-size="12" lengthAdjust="spacing" textLength="216.0762" x="94.0283" y="213.9961">ipcsHwFlushCache(tmp_addr,tmp_size);</text><rect fill="#F1F1F1" height="35.0938" rx="12.5" ry="12.5" style="stroke:#181818;stroke-width:0.5;" width="94.7012" x="413.1328" y="136.4453"/><text fill="#000000" font-family="sans-serif" font-size="12" lengthAdjust="spacing" textLength="74.7012" x="423.1328" y="158.9023">(void)instance</text><polygon fill="#F1F1F1" points="331.2749,232.6328,343.2749,244.6328,331.2749,256.6328,319.2749,244.6328,331.2749,232.6328" style="stroke:#181818;stroke-width:0.5;"/><ellipse cx="331.2749" cy="287.6328" fill="none" rx="11" ry="11" style="stroke:#222222;stroke-width:1;"/><ellipse cx="331.2749" cy="287.6328" fill="#222222" rx="6" ry="6" style="stroke:#222222;stroke-width:1;"/><line style="stroke:#181818;stroke-width:1;" x1="202.0664" x2="202.0664" y1="171.5391" y2="191.5391"/><polygon fill="#181818" points="198.0664,181.5391,202.0664,191.5391,206.0664,181.5391,202.0664,185.5391" style="stroke:#181818;stroke-width:1;"/><line style="stroke:#181818;stroke-width:1;" x1="233.3696" x2="202.0664" y1="107.5273" y2="107.5273"/><line style="stroke:#181818;stroke-width:1;" x1="202.0664" x2="202.0664" y1="107.5273" y2="136.4453"/><polygon fill="#181818" points="198.0664,126.4453,202.0664,136.4453,206.0664,126.4453,202.0664,130.4453" style="stroke:#181818;stroke-width:1;"/><line style="stroke:#181818;stroke-width:1;" x1="429.1802" x2="460.4834" y1="107.5273" y2="107.5273"/><line style="stroke:#181818;stroke-width:1;" x1="460.4834" x2="460.4834" y1="107.5273" y2="136.4453"/><polygon fill="#181818" points="456.4834,126.4453,460.4834,136.4453,464.4834,126.4453,460.4834,130.4453" style="stroke:#181818;stroke-width:1;"/><line style="stroke:#181818;stroke-width:1;" x1="202.0664" x2="202.0664" y1="226.6328" y2="244.6328"/><line style="stroke:#181818;stroke-width:1;" x1="202.0664" x2="319.2749" y1="244.6328" y2="244.6328"/><polygon fill="#181818" points="309.2749,240.6328,319.2749,244.6328,309.2749,248.6328,313.2749,244.6328" style="stroke:#181818;stroke-width:1;"/><line style="stroke:#181818;stroke-width:1;" x1="460.4834" x2="460.4834" y1="171.5391" y2="244.6328"/><line style="stroke:#181818;stroke-width:1;" x1="460.4834" x2="343.2749" y1="244.6328" y2="244.6328"/><polygon fill="#181818" points="353.2749,240.6328,343.2749,244.6328,353.2749,248.6328,349.2749,244.6328" style="stroke:#181818;stroke-width:1;"/><line style="stroke:#181818;stroke-width:1;" x1="331.2749" x2="331.2749" y1="68.6094" y2="88.6094"/><polygon fill="#181818" points="327.2749,78.6094,331.2749,88.6094,335.2749,78.6094,331.2749,82.6094" style="stroke:#181818;stroke-width:1;"/><line style="stroke:#181818;stroke-width:1;" x1="331.2749" x2="331.2749" y1="256.6328" y2="276.6328"/><polygon fill="#181818" points="327.2749,266.6328,331.2749,276.6328,335.2749,266.6328,331.2749,270.6328" style="stroke:#181818;stroke-width:1;"/><?plantuml-src NP1DJiD038NtEONP9H8IUx909GsqKbMGUe38oZWTY_dJs0M5qpCJDeYTzVpysSztAUFL8pXSuqr1F2a6REI3GyAC7kOO32l7SD7L4N0GDhHdz4N_OtCSIDT44BFQs2XhDQTP3bylxYPsmDdIASxe6b7Csl02xV5zcFRJi1iEupIUTy-d4GmjXMIUEb1B0TgLf6i07j6O34kEVeE-oIlfHhjOtuFmDpqe-VJh4EkdAW4wlWPFGVk-ClwVqwfFKmNVrw9ETCL8JWZQ4BUrxMTaqvNGvIipbMPvnb8InFG3?></g></svg>