<?plantuml 1.2026.2?><svg xmlns="http://www.w3.org/2000/svg" xmlns:xlink="http://www.w3.org/1999/xlink" contentStyleType="text/css" data-diagram-type="ACTIVITY" height="392px" preserveAspectRatio="none" style="width:676px;height:392px;background:#FFFFFF;" version="1.1" viewBox="0 0 676 392" width="676px" zoomAndPan="magnify"><title>ipcsQueueCheckIntegrity</title><defs/><g><g class="title" data-source-line="4"><text fill="#000000" font-family="sans-serif" font-size="14" font-weight="bold" lengthAdjust="spacing" textLength="168.8271" x="252.5457" y="34.5332">ipcsQueueCheckIntegrity</text></g><ellipse cx="329.4592" cy="58.6094" fill="#222222" rx="10" ry="10" style="stroke:#222222;stroke-width:1;"/><rect fill="#F1F1F1" height="35.0938" rx="12.5" ry="12.5" style="stroke:#181818;stroke-width:0.5;" width="191.0352" x="233.9417" y="88.6094"/><text fill="#000000" font-family="sans-serif" font-size="12" lengthAdjust="spacing" textLength="171.0352" x="243.9417" y="111.0664">err = -IPC_SHM_E_INTEGRITY</text><rect fill="#F1F1F1" height="35.0938" rx="12.5" ry="12.5" style="stroke:#181818;stroke-width:0.5;" width="140.375" x="259.2717" y="205.5391"/><text fill="#000000" font-family="sans-serif" font-size="12" lengthAdjust="spacing" textLength="120.375" x="269.2717" y="227.9961">err = IPC_SHM_E_OK</text><polygon fill="#F1F1F1" points="329.4592,143.7031,638.9185,162.6211,329.4592,181.5391,20,162.6211" style="stroke:#181818;stroke-width:0.5;"/><text fill="#000000" font-family="sans-serif" font-size="11" lengthAdjust="spacing" textLength="17.1177" x="333.4592" y="192.958">yes</text><text fill="#000000" font-family="sans-serif" font-size="11" lengthAdjust="spacing" textLength="594.9185" x="32" y="167.1221">(IPC_QUEUE_SENTINEL == queue-&gt;pop_ring-&gt;sentinel) &amp;&amp; (IPC_QUEUE_SENTINEL == queue-&gt;push_ring-&gt;sentinel)?</text><text fill="#000000" font-family="sans-serif" font-size="11" lengthAdjust="spacing" textLength="12.2354" x="638.9185" y="158.2861">no</text><polygon fill="#F1F1F1" points="329.4592,260.6328,341.4592,272.6328,329.4592,284.6328,317.4592,272.6328,329.4592,260.6328" style="stroke:#181818;stroke-width:0.5;"/><rect fill="#F1F1F1" height="35.0938" rx="12.5" ry="12.5" style="stroke:#181818;stroke-width:0.5;" width="69.3477" x="294.7854" y="304.6328"/><text fill="#000000" font-family="sans-serif" font-size="12" lengthAdjust="spacing" textLength="49.3477" x="304.7854" y="327.0898">return err</text><ellipse cx="329.4592" cy="370.7266" fill="none" rx="11" ry="11" style="stroke:#222222;stroke-width:1;"/><ellipse cx="329.4592" cy="370.7266" fill="#222222" rx="6" ry="6" style="stroke:#222222;stroke-width:1;"/><line style="stroke:#181818;stroke-width:1;" x1="329.4592" x2="329.4592" y1="68.6094" y2="88.6094"/><polygon fill="#181818" points="325.4592,78.6094,329.4592,88.6094,333.4592,78.6094,329.4592,82.6094" style="stroke:#181818;stroke-width:1;"/><line style="stroke:#181818;stroke-width:1;" x1="329.4592" x2="329.4592" y1="181.5391" y2="205.5391"/><polygon fill="#181818" points="325.4592,195.5391,329.4592,205.5391,333.4592,195.5391,329.4592,199.5391" style="stroke:#181818;stroke-width:1;"/><line style="stroke:#181818;stroke-width:1;" x1="638.9185" x2="650.9185" y1="162.6211" y2="162.6211"/><polygon fill="#181818" points="646.9185,209.627,650.9185,219.627,654.9185,209.627,650.9185,213.627" style="stroke:#181818;stroke-width:1;"/><line style="stroke:#181818;stroke-width:1;" x1="650.9185" x2="650.9185" y1="162.6211" y2="272.6328"/><line style="stroke:#181818;stroke-width:1;" x1="650.9185" x2="341.4592" y1="272.6328" y2="272.6328"/><polygon fill="#181818" points="351.4592,268.6328,341.4592,272.6328,351.4592,276.6328,347.4592,272.6328" style="stroke:#181818;stroke-width:1;"/><line style="stroke:#181818;stroke-width:1;" x1="329.4592" x2="329.4592" y1="240.6328" y2="260.6328"/><polygon fill="#181818" points="325.4592,250.6328,329.4592,260.6328,333.4592,250.6328,329.4592,254.6328" style="stroke:#181818;stroke-width:1;"/><line style="stroke:#181818;stroke-width:1;" x1="329.4592" x2="329.4592" y1="123.7031" y2="143.7031"/><polygon fill="#181818" points="325.4592,133.7031,329.4592,143.7031,333.4592,133.7031,329.4592,137.7031" style="stroke:#181818;stroke-width:1;"/><line style="stroke:#181818;stroke-width:1;" x1="329.4592" x2="329.4592" y1="284.6328" y2="304.6328"/><polygon fill="#181818" points="325.4592,294.6328,329.4592,304.6328,333.4592,294.6328,329.4592,298.6328" style="stroke:#181818;stroke-width:1;"/><line style="stroke:#181818;stroke-width:1;" x1="329.4592" x2="329.4592" y1="339.7266" y2="359.7266"/><polygon fill="#181818" points="325.4592,349.7266,329.4592,359.7266,333.4592,349.7266,329.4592,353.7266" style="stroke:#181818;stroke-width:1;"/><?plantuml-src XP0nRuD038Nt-nNk4i707mWY7T9JUcf2cqA6JkX47B02lkkT6VZt1QbIgovT_Rvdl-S77smtMXZix2Q1EA9OjYhUYRqDTeJMyPM475So3mZ4aQxuH7PSvh-mWHXbzWWkIE-KaAomR-DvmWdtFRPtmu9T89bL51j4RJ44A20pR_kcUZurkZ5bhG_lflx85TqWILRbVD4NtLIwh4sfZr0KyBbkp7RU-IOGTzak8ijoVaXXiu5_J5Fi_xeUKv0U6P8POwe0ldFzn7fzoHKE4I5XbofS_d5Jsu0o1OQ5pPS-pdy1?></g></svg>