<?plantuml 1.2026.2?><svg xmlns="http://www.w3.org/2000/svg" xmlns:xlink="http://www.w3.org/1999/xlink" contentStyleType="text/css" data-diagram-type="ACTIVITY" height="602px" preserveAspectRatio="none" style="width:1357px;height:602px;background:#FFFFFF;" version="1.1" viewBox="0 0 1357 602" width="1357px" zoomAndPan="magnify"><title>ipcsShmInitChannel</title><defs/><g><g class="title" data-source-line="4"><text fill="#000000" font-family="sans-serif" font-size="14" font-weight="bold" lengthAdjust="spacing" textLength="134.5723" x="609.9866" y="34.5332">ipcsShmInitChannel</text></g><ellipse cx="671.2727" cy="58.6094" fill="#222222" rx="10" ry="10" style="stroke:#222222;stroke-width:1;"/><rect fill="#F1F1F1" height="35.0938" rx="12.5" ry="12.5" style="stroke:#181818;stroke-width:0.5;" width="262.4316" x="540.0569" y="88.6094"/><text fill="#000000" font-family="sans-serif" font-size="12" lengthAdjust="spacing" textLength="242.4316" x="550.0569" y="111.0664">chan struct; sint32 err = -IPC_SHM_E_INVAL</text><rect fill="#F1F1F1" height="35.0938" rx="12.5" ry="12.5" style="stroke:#181818;stroke-width:0.5;" width="255.1543" x="543.6956" y="205.5391"/><text fill="#000000" font-family="sans-serif" font-size="12" lengthAdjust="spacing" textLength="235.1543" x="553.6956" y="227.9961">chan-&gt;id = chan_id; chan-&gt;type = cfg-&gt;type;</text><polygon fill="#F1F1F1" points="192.3962,260.6328,373.6599,260.6328,385.6599,272.6328,373.6599,284.6328,192.3962,284.6328,180.3962,272.6328,192.3962,260.6328" style="stroke:#181818;stroke-width:0.5;"/><text fill="#000000" font-family="sans-serif" font-size="11" lengthAdjust="spacing" textLength="17.1177" x="287.0281" y="296.0518">yes</text><text fill="#000000" font-family="sans-serif" font-size="11" lengthAdjust="spacing" textLength="181.2637" x="192.3962" y="277.1338">cfg-&gt;type == IPC_SHM_MANAGED?</text><polygon fill="#F1F1F1" points="283.0281,317.5518,464.1987,336.4697,283.0281,355.3877,101.8574,336.4697" style="stroke:#181818;stroke-width:0.5;"/><text fill="#000000" font-family="sans-serif" font-size="11" lengthAdjust="spacing" textLength="338.3413" x="113.8574" y="340.9707">(cfg-&gt;ch.managed.rx_cb==NULL)||(cfg-&gt;ch.managed.pools==NULL)?</text><text fill="#000000" font-family="sans-serif" font-size="11" lengthAdjust="spacing" textLength="17.1177" x="84.7397" y="327.1348">yes</text><text fill="#000000" font-family="sans-serif" font-size="11" lengthAdjust="spacing" textLength="12.2354" x="464.1987" y="332.1348">no</text><rect fill="#F1F1F1" height="35.0938" rx="12.5" ry="12.5" style="stroke:#181818;stroke-width:0.5;" width="161.7148" x="11" y="365.3877"/><text fill="#000000" font-family="sans-serif" font-size="12" lengthAdjust="spacing" textLength="141.7148" x="21" y="387.8447">err = -IPC_SHM_E_INVAL</text><rect fill="#F1F1F1" height="35.0938" rx="12.5" ry="12.5" style="stroke:#181818;stroke-width:0.5;" width="284.8145" x="331.7915" y="365.3877"/><text fill="#000000" font-family="sans-serif" font-size="12" lengthAdjust="spacing" textLength="264.8145" x="341.7915" y="387.8447">err = managedChannelInit(...,&amp;cfg-&gt;ch.managed);</text><polygon fill="#F1F1F1" points="283.0281,406.4814,295.0281,418.4814,283.0281,430.4814,271.0281,418.4814,283.0281,406.4814" style="stroke:#181818;stroke-width:0.5;"/><polygon fill="#F1F1F1" points="767.1938,260.6328,964.3452,260.6328,976.3452,272.6328,964.3452,284.6328,767.1938,284.6328,755.1938,272.6328,767.1938,260.6328" style="stroke:#181818;stroke-width:0.5;"/><text fill="#000000" font-family="sans-serif" font-size="11" lengthAdjust="spacing" textLength="17.1177" x="869.7695" y="296.0518">yes</text><text fill="#000000" font-family="sans-serif" font-size="11" lengthAdjust="spacing" textLength="197.1514" x="767.1938" y="277.1338">cfg-&gt;type == IPC_SHM_UNMANAGED?</text><text fill="#000000" font-family="sans-serif" font-size="11" lengthAdjust="spacing" textLength="106.9922" x="976.3452" y="270.2158">IPC_SHM other type?</text><polygon fill="#F1F1F1" points="865.7695,317.5518,965.0605,336.4697,865.7695,355.3877,766.4785,336.4697" style="stroke:#181818;stroke-width:0.5;"/><text fill="#000000" font-family="sans-serif" font-size="11" lengthAdjust="spacing" textLength="174.582" x="778.4785" y="340.9707">cfg-&gt;ch.unmanaged.rx_cb==NULL?</text><text fill="#000000" font-family="sans-serif" font-size="11" lengthAdjust="spacing" textLength="17.1177" x="749.3608" y="327.1348">yes</text><text fill="#000000" font-family="sans-serif" font-size="11" lengthAdjust="spacing" textLength="12.2354" x="965.0605" y="332.1348">no</text><rect fill="#F1F1F1" height="35.0938" rx="12.5" ry="12.5" style="stroke:#181818;stroke-width:0.5;" width="161.7148" x="656.606" y="365.3877"/><text fill="#000000" font-family="sans-serif" font-size="12" lengthAdjust="spacing" textLength="141.7148" x="666.606" y="387.8447">err = -IPC_SHM_E_INVAL</text><rect fill="#F1F1F1" height="35.0938" rx="12.5" ry="12.5" style="stroke:#181818;stroke-width:0.5;" width="311.5098" x="838.3208" y="365.3877"/><text fill="#000000" font-family="sans-serif" font-size="12" lengthAdjust="spacing" textLength="291.5098" x="848.3208" y="387.8447">err = unmanagedChannelInit(...,&amp;cfg-&gt;ch.unmanaged);</text><polygon fill="#F1F1F1" points="865.7695,406.4814,877.7695,418.4814,865.7695,430.4814,853.7695,418.4814,865.7695,406.4814" style="stroke:#181818;stroke-width:0.5;"/><rect fill="#F1F1F1" height="35.0938" rx="12.5" ry="12.5" style="stroke:#181818;stroke-width:0.5;" width="161.7148" x="1159.8306" y="352.5518"/><text fill="#000000" font-family="sans-serif" font-size="12" lengthAdjust="spacing" textLength="141.7148" x="1169.8306" y="375.0088">err = -IPC_SHM_E_INVAL</text><polygon fill="#F1F1F1" points="671.2727,143.7031,715.5261,162.6211,671.2727,181.5391,627.0193,162.6211" style="stroke:#181818;stroke-width:0.5;"/><text fill="#000000" font-family="sans-serif" font-size="11" lengthAdjust="spacing" textLength="17.1177" x="675.2727" y="192.958">yes</text><text fill="#000000" font-family="sans-serif" font-size="11" lengthAdjust="spacing" textLength="64.5068" x="639.0193" y="167.1221">cfg != NULL?</text><text fill="#000000" font-family="sans-serif" font-size="11" lengthAdjust="spacing" textLength="12.2354" x="715.5261" y="158.2861">no</text><polygon fill="#F1F1F1" points="671.2727,470.4814,683.2727,482.4814,671.2727,494.4814,659.2727,482.4814,671.2727,470.4814" style="stroke:#181818;stroke-width:0.5;"/><rect fill="#F1F1F1" height="35.0938" rx="12.5" ry="12.5" style="stroke:#181818;stroke-width:0.5;" width="69.3477" x="636.5989" y="514.4814"/><text fill="#000000" font-family="sans-serif" font-size="12" lengthAdjust="spacing" textLength="49.3477" x="646.5989" y="536.9385">return err</text><ellipse cx="671.2727" cy="580.5752" fill="none" rx="11" ry="11" style="stroke:#222222;stroke-width:1;"/><ellipse cx="671.2727" cy="580.5752" fill="#222222" rx="6" ry="6" style="stroke:#222222;stroke-width:1;"/><line style="stroke:#181818;stroke-width:1;" x1="671.2727" x2="671.2727" y1="68.6094" y2="88.6094"/><polygon fill="#181818" points="667.2727,78.6094,671.2727,88.6094,675.2727,78.6094,671.2727,82.6094" style="stroke:#181818;stroke-width:1;"/><line style="stroke:#181818;stroke-width:1;" x1="101.8574" x2="91.8574" y1="336.4697" y2="336.4697"/><line style="stroke:#181818;stroke-width:1;" x1="91.8574" x2="91.8574" y1="336.4697" y2="365.3877"/><polygon fill="#181818" points="87.8574,355.3877,91.8574,365.3877,95.8574,355.3877,91.8574,359.3877" style="stroke:#181818;stroke-width:1;"/><line style="stroke:#181818;stroke-width:1;" x1="464.1987" x2="474.1987" y1="336.4697" y2="336.4697"/><line style="stroke:#181818;stroke-width:1;" x1="474.1987" x2="474.1987" y1="336.4697" y2="365.3877"/><polygon fill="#181818" points="470.1987,355.3877,474.1987,365.3877,478.1987,355.3877,474.1987,359.3877" style="stroke:#181818;stroke-width:1;"/><line style="stroke:#181818;stroke-width:1;" x1="91.8574" x2="91.8574" y1="400.4814" y2="418.4814"/><line style="stroke:#181818;stroke-width:1;" x1="91.8574" x2="271.0281" y1="418.4814" y2="418.4814"/><polygon fill="#181818" points="261.0281,414.4814,271.0281,418.4814,261.0281,422.4814,265.0281,418.4814" style="stroke:#181818;stroke-width:1;"/><line style="stroke:#181818;stroke-width:1;" x1="474.1987" x2="474.1987" y1="400.4814" y2="418.4814"/><line style="stroke:#181818;stroke-width:1;" x1="474.1987" x2="295.0281" y1="418.4814" y2="418.4814"/><polygon fill="#181818" points="305.0281,414.4814,295.0281,418.4814,305.0281,422.4814,301.0281,418.4814" style="stroke:#181818;stroke-width:1;"/><line style="stroke:#181818;stroke-width:1;" x1="766.4785" x2="737.4634" y1="336.4697" y2="336.4697"/><line style="stroke:#181818;stroke-width:1;" x1="737.4634" x2="737.4634" y1="336.4697" y2="365.3877"/><polygon fill="#181818" points="733.4634,355.3877,737.4634,365.3877,741.4634,355.3877,737.4634,359.3877" style="stroke:#181818;stroke-width:1;"/><line style="stroke:#181818;stroke-width:1;" x1="965.0605" x2="994.0757" y1="336.4697" y2="336.4697"/><line style="stroke:#181818;stroke-width:1;" x1="994.0757" x2="994.0757" y1="336.4697" y2="365.3877"/><polygon fill="#181818" points="990.0757,355.3877,994.0757,365.3877,998.0757,355.3877,994.0757,359.3877" style="stroke:#181818;stroke-width:1;"/><line style="stroke:#181818;stroke-width:1;" x1="737.4634" x2="737.4634" y1="400.4814" y2="418.4814"/><line style="stroke:#181818;stroke-width:1;" x1="737.4634" x2="853.7695" y1="418.4814" y2="418.4814"/><polygon fill="#181818" points="843.7695,414.4814,853.7695,418.4814,843.7695,422.4814,847.7695,418.4814" style="stroke:#181818;stroke-width:1;"/><line style="stroke:#181818;stroke-width:1;" x1="994.0757" x2="994.0757" y1="400.4814" y2="418.4814"/><line style="stroke:#181818;stroke-width:1;" x1="994.0757" x2="877.7695" y1="418.4814" y2="418.4814"/><polygon fill="#181818" points="887.7695,414.4814,877.7695,418.4814,887.7695,422.4814,883.7695,418.4814" style="stroke:#181818;stroke-width:1;"/><line style="stroke:#181818;stroke-width:1;" x1="283.0281" x2="283.0281" y1="284.6328" y2="317.5518"/><polygon fill="#181818" points="279.0281,307.5518,283.0281,317.5518,287.0281,307.5518,283.0281,311.5518" style="stroke:#181818;stroke-width:1;"/><line style="stroke:#181818;stroke-width:1;" x1="283.0281" x2="283.0281" y1="430.4814" y2="450.4814"/><polygon fill="#181818" points="279.0281,440.4814,283.0281,450.4814,287.0281,440.4814,283.0281,444.4814" style="stroke:#181818;stroke-width:1;"/><line style="stroke:#181818;stroke-width:1;" x1="865.7695" x2="865.7695" y1="284.6328" y2="317.5518"/><polygon fill="#181818" points="861.7695,307.5518,865.7695,317.5518,869.7695,307.5518,865.7695,311.5518" style="stroke:#181818;stroke-width:1;"/><line style="stroke:#181818;stroke-width:1;" x1="865.7695" x2="865.7695" y1="430.4814" y2="450.4814"/><polygon fill="#181818" points="861.7695,440.4814,865.7695,450.4814,869.7695,440.4814,865.7695,444.4814" style="stroke:#181818;stroke-width:1;"/><line style="stroke:#181818;stroke-width:1;" x1="385.6599" x2="755.1938" y1="272.6328" y2="272.6328"/><polygon fill="#181818" points="745.1938,268.6328,755.1938,272.6328,745.1938,276.6328,749.1938,272.6328" style="stroke:#181818;stroke-width:1;"/><line style="stroke:#181818;stroke-width:1;" x1="671.2727" x2="671.2727" y1="240.6328" y2="245.6328"/><line style="stroke:#181818;stroke-width:1;" x1="671.2727" x2="283.0281" y1="245.6328" y2="245.6328"/><line style="stroke:#181818;stroke-width:1;" x1="283.0281" x2="283.0281" y1="245.6328" y2="260.6328"/><polygon fill="#181818" points="279.0281,250.6328,283.0281,260.6328,287.0281,250.6328,283.0281,254.6328" style="stroke:#181818;stroke-width:1;"/><line style="stroke:#181818;stroke-width:1;" x1="976.3452" x2="1240.688" y1="272.6328" y2="272.6328"/><line style="stroke:#181818;stroke-width:1;" x1="1240.688" x2="1240.688" y1="272.6328" y2="352.5518"/><polygon fill="#181818" points="1236.688,342.5518,1240.688,352.5518,1244.688,342.5518,1240.688,346.5518" style="stroke:#181818;stroke-width:1;"/><line style="stroke:#181818;stroke-width:1;" x1="1240.688" x2="1240.688" y1="387.6455" y2="450.4814"/><polygon fill="#181818" points="1236.688,440.4814,1240.688,450.4814,1244.688,440.4814,1240.688,444.4814" style="stroke:#181818;stroke-width:1;"/><line style="stroke:#181818;stroke-width:1;" x1="283.0281" x2="1240.688" y1="450.4814" y2="450.4814"/><line style="stroke:#181818;stroke-width:1;" x1="671.2727" x2="671.2727" y1="181.5391" y2="205.5391"/><polygon fill="#181818" points="667.2727,195.5391,671.2727,205.5391,675.2727,195.5391,671.2727,199.5391" style="stroke:#181818;stroke-width:1;"/><line style="stroke:#181818;stroke-width:1;" x1="715.5261" x2="1331.5454" y1="162.6211" y2="162.6211"/><polygon fill="#181818" points="1327.5454,321.5928,1331.5454,331.5928,1335.5454,321.5928,1331.5454,325.5928" style="stroke:#181818;stroke-width:1;"/><line style="stroke:#181818;stroke-width:1;" x1="1331.5454" x2="1331.5454" y1="162.6211" y2="482.4814"/><line style="stroke:#181818;stroke-width:1;" x1="1331.5454" x2="683.2727" y1="482.4814" y2="482.4814"/><polygon fill="#181818" points="693.2727,478.4814,683.2727,482.4814,693.2727,486.4814,689.2727,482.4814" style="stroke:#181818;stroke-width:1;"/><line style="stroke:#181818;stroke-width:1;" x1="671.2727" x2="671.2727" y1="450.4814" y2="470.4814"/><polygon fill="#181818" points="667.2727,460.4814,671.2727,470.4814,675.2727,460.4814,671.2727,464.4814" style="stroke:#181818;stroke-width:1;"/><line style="stroke:#181818;stroke-width:1;" x1="671.2727" x2="671.2727" y1="123.7031" y2="143.7031"/><polygon fill="#181818" points="667.2727,133.7031,671.2727,143.7031,675.2727,133.7031,671.2727,137.7031" style="stroke:#181818;stroke-width:1;"/><line style="stroke:#181818;stroke-width:1;" x1="671.2727" x2="671.2727" y1="494.4814" y2="514.4814"/><polygon fill="#181818" points="667.2727,504.4814,671.2727,514.4814,675.2727,504.4814,671.2727,508.4814" style="stroke:#181818;stroke-width:1;"/><line style="stroke:#181818;stroke-width:1;" x1="671.2727" x2="671.2727" y1="549.5752" y2="569.5752"/><polygon fill="#181818" points="667.2727,559.5752,671.2727,569.5752,675.2727,559.5752,671.2727,563.5752" style="stroke:#181818;stroke-width:1;"/><?plantuml-src hPBBQiCm44Nt-eh9fjZGUD7kOjmGaj064bC8wTQeicoBsfAHnb13FhvIvAGbhrLtqZpEt3lIgDMqR2ZKj5STWcauKac9-HAofPesm9JC1GebjzZN78Gq8kSBGHiR_rDM2ycnRpaeZPKYAD0LjynigsOb1SuhAYMlYK6gaKoOlO91tJ6CmGY9pq_0jOO4ngltURPzssJBR9L-pDOn4GK4h2XXb42wMw-d8M359GGzDo41EB36BoAtpUwOYJm67pi8ij6YzESujlK3xfXDu3XmCqjdhyl5ETzt-1PMHOrTJydpI7zdx3D9dA9mlxz8jqhLPaXV4gtgMsvTajU6Go3LMV707bRfjXf4KVJuS3OxZ0UAVRY2UDfDqxlqhkqZkfDNVF-NhnFyfhDJnJLl40p3G5av6fp5gHznHuqd_2hozudcs6df_c9i_wfgVm00?></g></svg>