<?plantuml 1.2026.2?><svg xmlns="http://www.w3.org/2000/svg" xmlns:xlink="http://www.w3.org/1999/xlink" contentStyleType="text/css" data-diagram-type="DESCRIPTION" height="217px" preserveAspectRatio="none" style="width:490px;height:217px;background:#FFFCF5;" version="1.1" viewBox="0 0 490 217" width="490px" zoomAndPan="magnify"><title>hw/ipc-hw.c &#8212; #include &#20381;&#36182;</title><defs/><g><rect fill="#FFFCF5" height="217" style="stroke:none;stroke-width:1;" width="490" x="0" y="0"/><g class="title" data-source-line="16"><text fill="#000000" font-family="sans-serif" font-size="14" font-weight="bold" lengthAdjust="spacing" textLength="191.1123" x="142.453" y="24.5332">hw/ipc-hw.c &#8212; #include &#20381;&#36182;</text></g><!--entity SRC--><g class="entity" data-qualified-name="SRC" data-source-line="17" id="ent0002"><rect fill="#F5E6CC" height="43.8359" rx="2.5" ry="2.5" style="stroke:#8B7355;stroke-width:0.5;" width="97.46" x="177.11" y="45.6094"/><rect fill="#F5E6CC" height="10" style="stroke:#8B7355;stroke-width:0.5;" width="15" x="254.57" y="50.6094"/><rect fill="#F5E6CC" height="2" style="stroke:#8B7355;stroke-width:0.5;" width="4" x="252.57" y="52.6094"/><rect fill="#F5E6CC" height="2" style="stroke:#8B7355;stroke-width:0.5;" width="4" x="252.57" y="56.6094"/><text fill="#000000" font-family="sans-serif" font-size="11" lengthAdjust="spacing" textLength="57.46" x="192.11" y="77.0283">hw/ipc-hw.c</text></g><!--entity H0--><g class="entity" data-qualified-name="H0" data-source-line="18" id="ent0003"><rect fill="#F5E6CC" height="43.8359" rx="2.5" ry="2.5" style="stroke:#8B7355;stroke-width:0.5;" width="87.6792" x="7" y="167.4394"/><rect fill="#F5E6CC" height="10" style="stroke:#8B7355;stroke-width:0.5;" width="15" x="74.6792" y="172.4394"/><rect fill="#F5E6CC" height="2" style="stroke:#8B7355;stroke-width:0.5;" width="4" x="72.6792" y="174.4394"/><rect fill="#F5E6CC" height="2" style="stroke:#8B7355;stroke-width:0.5;" width="4" x="72.6792" y="178.4394"/><text fill="#000000" font-family="sans-serif" font-size="11" lengthAdjust="spacing" textLength="47.6792" x="22" y="198.8583">ipc-shm.h</text></g><!--entity H1--><g class="entity" data-qualified-name="H1" data-source-line="19" id="ent0004"><rect fill="#F5E6CC" height="43.8359" rx="2.5" ry="2.5" style="stroke:#8B7355;stroke-width:0.5;" width="78.5161" x="129.58" y="167.4394"/><rect fill="#F5E6CC" height="10" style="stroke:#8B7355;stroke-width:0.5;" width="15" x="188.0961" y="172.4394"/><rect fill="#F5E6CC" height="2" style="stroke:#8B7355;stroke-width:0.5;" width="4" x="186.0961" y="174.4394"/><rect fill="#F5E6CC" height="2" style="stroke:#8B7355;stroke-width:0.5;" width="4" x="186.0961" y="178.4394"/><text fill="#000000" font-family="sans-serif" font-size="11" lengthAdjust="spacing" textLength="38.5161" x="144.58" y="198.8583">ipc-os.h</text></g><!--entity H2--><g class="entity" data-qualified-name="H2" data-source-line="20" id="ent0005"><rect fill="#F5E6CC" height="43.8359" rx="2.5" ry="2.5" style="stroke:#8B7355;stroke-width:0.5;" width="80.96" x="243.36" y="167.4394"/><rect fill="#F5E6CC" height="10" style="stroke:#8B7355;stroke-width:0.5;" width="15" x="304.32" y="172.4394"/><rect fill="#F5E6CC" height="2" style="stroke:#8B7355;stroke-width:0.5;" width="4" x="302.32" y="174.4394"/><rect fill="#F5E6CC" height="2" style="stroke:#8B7355;stroke-width:0.5;" width="4" x="302.32" y="178.4394"/><text fill="#000000" font-family="sans-serif" font-size="11" lengthAdjust="spacing" textLength="40.96" x="258.36" y="198.8583">ipc-hw.h</text></g><!--entity H3--><g class="entity" data-qualified-name="H3" data-source-line="21" id="ent0006"><rect fill="#F5E6CC" height="43.8359" rx="2.5" ry="2.5" style="stroke:#8B7355;stroke-width:0.5;" width="124.3584" x="359.66" y="167.4394"/><rect fill="#F5E6CC" height="10" style="stroke:#8B7355;stroke-width:0.5;" width="15" x="464.0184" y="172.4394"/><rect fill="#F5E6CC" height="2" style="stroke:#8B7355;stroke-width:0.5;" width="4" x="462.0184" y="174.4394"/><rect fill="#F5E6CC" height="2" style="stroke:#8B7355;stroke-width:0.5;" width="4" x="462.0184" y="178.4394"/><text fill="#000000" font-family="sans-serif" font-size="11" lengthAdjust="spacing" textLength="84.3584" x="374.66" y="198.8583">ipc-hw-platform.h</text></g><!--link SRC to H0--><g class="link" data-entity-1="ent0002" data-entity-2="ent0003" data-link-type="dependency" data-source-line="22" id="lnk7"><path d="M176.78,86.8394 C157.23,95.2894 135.09,106.3594 116.84,119.4394 C97.99,132.9594 83.8831,147.7085 71.4631,162.4685" fill="none" id="SRC-to-H0" style="stroke:#5C4033;stroke-width:1;stroke-dasharray:7,7;"/><polygon fill="#5C4033" points="67.6,167.0594,76.4552,162.7484,70.8192,163.2336,70.334,157.5976,67.6,167.0594" style="stroke:#5C4033;stroke-width:1;"/><g data-visibility-modifier="PROTECTED_METHOD"><polygon fill="none" points="122.84,124.1152,126.84,128.1152,122.84,132.1152,118.84,128.1152" style="stroke:#B38D22;stroke-width:1;"/></g><text fill="#000000" font-family="sans-serif" font-size="13" lengthAdjust="spacing" textLength="41.1963" x="129.84" y="133.9345">include</text></g><!--link SRC to H1--><g class="link" data-entity-1="ent0002" data-entity-2="ent0004" data-link-type="dependency" data-source-line="23" id="lnk8"><path d="M206.12,89.4494 C198.82,98.1594 191.06,108.7294 185.84,119.4394 C178.49,134.5094 175.1814,147.1087 172.7314,161.1487" fill="none" id="SRC-to-H1" style="stroke:#5C4033;stroke-width:1;stroke-dasharray:7,7;"/><polygon fill="#5C4033" points="171.7,167.0594,177.1876,158.881,172.5595,162.1338,169.3067,157.5057,171.7,167.0594" style="stroke:#5C4033;stroke-width:1;"/><g data-visibility-modifier="PROTECTED_METHOD"><polygon fill="none" points="191.84,124.1152,195.84,128.1152,191.84,132.1152,187.84,128.1152" style="stroke:#B38D22;stroke-width:1;"/></g><text fill="#000000" font-family="sans-serif" font-size="13" lengthAdjust="spacing" textLength="41.1963" x="198.84" y="133.9345">include</text></g><!--link SRC to H2--><g class="link" data-entity-1="ent0002" data-entity-2="ent0005" data-link-type="dependency" data-source-line="24" id="lnk9"><path d="M236.08,89.6694 C246.61,111.4394 260.3262,139.7786 270.8962,161.6186" fill="none" id="SRC-to-H2" style="stroke:#5C4033;stroke-width:1;stroke-dasharray:7,7;"/><polygon fill="#5C4033" points="273.51,167.0194,273.1898,157.1757,271.3318,162.5188,265.9888,160.6608,273.51,167.0194" style="stroke:#5C4033;stroke-width:1;"/><g data-visibility-modifier="PROTECTED_METHOD"><polygon fill="none" points="264.31,124.1152,268.31,128.1152,264.31,132.1152,260.31,128.1152" style="stroke:#B38D22;stroke-width:1;"/></g><text fill="#000000" font-family="sans-serif" font-size="13" lengthAdjust="spacing" textLength="41.1963" x="271.31" y="133.9345">include</text></g><!--link SRC to H3--><g class="link" data-entity-1="ent0002" data-entity-2="ent0006" data-link-type="dependency" data-source-line="25" id="lnk10"><path d="M268,89.8894 C284.68,98.6594 303.88,109.1494 320.84,119.4394 C345.52,134.4194 367.583,149.4725 387.443,163.5325" fill="none" id="SRC-to-H3" style="stroke:#5C4033;stroke-width:1;stroke-dasharray:7,7;"/><polygon fill="#5C4033" points="392.34,166.9994,387.3057,158.5344,388.2592,164.1103,382.6832,165.0637,392.34,166.9994" style="stroke:#5C4033;stroke-width:1;"/><g data-visibility-modifier="PROTECTED_METHOD"><polygon fill="none" points="355.18,124.1152,359.18,128.1152,355.18,132.1152,351.18,128.1152" style="stroke:#B38D22;stroke-width:1;"/></g><text fill="#000000" font-family="sans-serif" font-size="13" lengthAdjust="spacing" textLength="41.1963" x="362.18" y="133.9345">include</text></g><?plantuml-src TP0nJiCm58RtdE99dHkSXWIN0QcnOZ7J4J4OnpHH4x_8SHK9XCGX41l7OEKmY85Zu5OX3McxVj-lxrbkreMkXH4Lt0kvNXdSw8nXYGOcd7F68w_f5nAh6hNI5fuyWEHW7wKnOrk39bEcepIv2AF8KOxQBej71K7WFG-gjUk8bJhHN72Iad5pGIY9oR-AC0RRJaVid8JXG6gqf_gSqvIE-mcTpsFg-hQmfOAyFIjgESrRNyBNoojC2YtBJQRW-_Fzv-FDs__BxM1w1wA1vGqRwgrhyihFT_AQZ1qsVoeOAvVirEnGJUjIs0SqVJdqt6Nm_Ijt12xx5-zfS9JEZj9mG7y1?></g></svg>