<?xml version="1.0" encoding="UTF-8"?>
<svg xmlns="http://www.w3.org/2000/svg" width="520" height="720" viewBox="0 0 520 720">
<defs><marker id="arrow" markerWidth="8" markerHeight="8" refX="7" refY="4" orient="auto" markerUnits="strokeWidth"><polygon points="0,0 8,4 0,8" fill="#5C4033"/></marker></defs>
<rect width="100%" height="100%" fill="#FFFCF5"/>
<rect x="228.0" y="12" width="64.0" height="36.0" rx="3" ry="3" fill="#F5E6CC" stroke="#8B7355" stroke-width="0.8"/>
<text x="260.0" y="34" text-anchor="middle" font-family="sans-serif" font-size="11" fill="#000">APP</text>
<circle cx="260.0" cy="72" r="7" fill="#F1F1F1" stroke="#181818" stroke-width="0.8"/>
<text x="260.0" y="96" text-anchor="middle" font-family="sans-serif" font-size="12" fill="#000">IF_AppSvc</text>
<path d="M20,118 L130.0,118 L138.0,136 L500,136 L500,478 L20,478 Z" fill="#FAF0E0" stroke="#A08060" stroke-width="1.5"/>
<line x1="20" y1="136" x2="138.0" y2="136" stroke="#A08060" stroke-width="1.5"/>
<text x="26" y="132" font-family="sans-serif" font-size="13" font-weight="bold" fill="#000">User Space</text>
<circle cx="150" cy="200" r="7" fill="#F1F1F1" stroke="#181818" stroke-width="0.8"/>
<text x="150" y="224" text-anchor="middle" font-family="sans-serif" font-size="12" fill="#000">IF_OSAbst</text>
<circle cx="390" cy="200" r="7" fill="#F1F1F1" stroke="#181818" stroke-width="0.8"/>
<text x="390" y="224" text-anchor="middle" font-family="sans-serif" font-size="12" fill="#000">IF_HWAbst</text>
<rect x="170" y="250" width="180" height="48" rx="3" ry="3" fill="#F5E6CC" stroke="#8B7355" stroke-width="0.8"/>
<rect x="332" y="255" width="12" height="8" fill="#F5E6CC" stroke="#8B7355" stroke-width="0.6"/>
<text x="260.0" y="272" text-anchor="middle" font-family="sans-serif" font-size="10" font-style="italic" fill="#000">&lt;&lt;Implement&gt;&gt;</text>
<text x="260.0" y="288" text-anchor="middle" font-family="sans-serif" font-size="10" fill="#000">SWU_IPCS_CORE_SHM</text>
<rect x="170" y="320" width="180" height="48" rx="3" ry="3" fill="#F5E6CC" stroke="#8B7355" stroke-width="0.8"/>
<rect x="332" y="325" width="12" height="8" fill="#F5E6CC" stroke="#8B7355" stroke-width="0.6"/>
<text x="260.0" y="342" text-anchor="middle" font-family="sans-serif" font-size="10" font-style="italic" fill="#000">&lt;&lt;Implement&gt;&gt;</text>
<text x="260.0" y="358" text-anchor="middle" font-family="sans-serif" font-size="10" fill="#000">SWU_IPCS_CORE_QUEUE</text>
<rect x="175" y="400" width="170" height="48" rx="3" ry="3" fill="#F5E6CC" stroke="#8B7355" stroke-width="0.8"/>
<rect x="327" y="405" width="12" height="8" fill="#F5E6CC" stroke="#8B7355" stroke-width="0.6"/>
<text x="260.0" y="422" text-anchor="middle" font-family="sans-serif" font-size="10" font-style="italic" fill="#000">&lt;&lt;Implement&gt;&gt;</text>
<text x="260.0" y="438" text-anchor="middle" font-family="sans-serif" font-size="10" fill="#000">SWU_IPCS_LINUX_OS_UIO</text>
<path d="M120,500 L218.0,500 L226.0,518 L400,518 L400,690 L120,690 Z" fill="#FAF0E0" stroke="#A08060" stroke-width="1.5"/>
<line x1="120" y1="518" x2="226.0" y2="518" stroke="#A08060" stroke-width="1.5"/>
<text x="126" y="514" font-family="sans-serif" font-size="13" font-weight="bold" fill="#000">Kernel Space</text>
<rect x="150" y="540" width="170" height="48" rx="3" ry="3" fill="#F5E6CC" stroke="#8B7355" stroke-width="0.8"/>
<rect x="302" y="545" width="12" height="8" fill="#F5E6CC" stroke="#8B7355" stroke-width="0.6"/>
<text x="235.0" y="562" text-anchor="middle" font-family="sans-serif" font-size="10" font-style="italic" fill="#000">&lt;&lt;Implement&gt;&gt;</text>
<text x="235.0" y="578" text-anchor="middle" font-family="sans-serif" font-size="10" fill="#000">SWU_IPCS_LINUX_UIO_KO</text>
<rect x="150" y="620" width="170" height="48" rx="3" ry="3" fill="#F5E6CC" stroke="#8B7355" stroke-width="0.8"/>
<rect x="302" y="625" width="12" height="8" fill="#F5E6CC" stroke="#8B7355" stroke-width="0.6"/>
<text x="235.0" y="642" text-anchor="middle" font-family="sans-serif" font-size="10" font-style="italic" fill="#000">&lt;&lt;Implement&gt;&gt;</text>
<text x="235.0" y="658" text-anchor="middle" font-family="sans-serif" font-size="10" fill="#000">SWU_IPCS_HAL_LINUX</text>
<path d="M260.0,48.0 L260.0,65" fill="none" stroke="#5C4033" stroke-width="1.1" marker-end="url(#arrow)"/>
<path d="M260.0,250 L260.0,79" fill="none" stroke="#5C4033" stroke-width="1.1" marker-end="url(#arrow)"/>
<path d="M260.0,320 L260.0,274.0" fill="none" stroke="#5C4033" stroke-width="1.1" marker-end="url(#arrow)"/>
<path d="M260.0,298 L120,298 L120,193 L150,193" fill="none" stroke="#5C4033" stroke-width="1.1" marker-end="url(#arrow)"/>
<path d="M260.0,298 L450,298 L450,193 L390,193" fill="none" stroke="#5C4033" stroke-width="1.1" marker-end="url(#arrow)"/>
<path d="M260.0,400 L110,400 L110,207 L150,207" fill="none" stroke="#5C4033" stroke-width="1.1" marker-end="url(#arrow)"/>
<path d="M260.0,400 L430,400 L430,207 L390,207" fill="none" stroke="#5C4033" stroke-width="1.1" marker-end="url(#arrow)"/>
<path d="M260.0,448 L260.0,448 L260.0,564.0 L235.0,564.0" fill="none" stroke="#5C4033" stroke-width="1.1" marker-end="url(#arrow)"/>
<path d="M235.0,588 L235.0,644.0" fill="none" stroke="#5C4033" stroke-width="1.1" marker-end="url(#arrow)"/>
</svg>
