<svg contentStyleType="text/css" data-diagram-type="DESCRIPTION" height="214px" preserveAspectRatio="none" style="width:412px;height:214px;background:#FFFCF5;" version="1.1" viewBox="0 0 412 214" width="412px" xmlns="http://www.w3.org/2000/svg" xmlns:xlink="http://www.w3.org/1999/xlink" zoomAndPan="magnify"><defs/><g><rect fill="#FFFCF5" height="214" style="stroke:none;stroke-width:1;" width="412" x="0" y="0"/><g class="entity" data-qualified-name="SRC" data-source-line="17" id="ent0002"><rect fill="#F5E6CC" height="43.8359" rx="2.5" ry="2.5" style="stroke:#8B7355;stroke-width:0.5;" width="197.1206" x="7" y="86"/><rect fill="#F5E6CC" height="10" style="stroke:#8B7355;stroke-width:0.5;" width="15" x="184.1206" y="91"/><rect fill="#F5E6CC" height="2" style="stroke:#8B7355;stroke-width:0.5;" width="4" x="182.1206" y="93"/><rect fill="#F5E6CC" height="2" style="stroke:#8B7355;stroke-width:0.5;" width="4" x="182.1206" y="97"/><text fill="#000000" font-family="sans-serif" font-size="11" lengthAdjust="spacing" textLength="157.1206" x="22" y="117.4189">os/baremetal/ipc-os-baremetal.c</text></g><g class="entity" data-qualified-name="H0" data-source-line="18" id="ent0003"><rect fill="#F5E6CC" height="43.8359" rx="2.5" ry="2.5" style="stroke:#8B7355;stroke-width:0.5;" width="87.6792" x="319.12" y="7"/><rect fill="#F5E6CC" height="10" style="stroke:#8B7355;stroke-width:0.5;" width="15" x="386.7992" y="12"/><rect fill="#F5E6CC" height="2" style="stroke:#8B7355;stroke-width:0.5;" width="4" x="384.7992" y="14"/><rect fill="#F5E6CC" height="2" style="stroke:#8B7355;stroke-width:0.5;" width="4" x="384.7992" y="18"/><text fill="#000000" font-family="sans-serif" font-size="11" lengthAdjust="spacing" textLength="47.6792" x="334.12" y="38.4189">ipc-shm.h</text></g><g class="entity" data-qualified-name="H1" data-source-line="19" id="ent0004"><rect fill="#F5E6CC" height="43.8359" rx="2.5" ry="2.5" style="stroke:#8B7355;stroke-width:0.5;" width="78.5161" x="323.7" y="86"/><rect fill="#F5E6CC" height="10" style="stroke:#8B7355;stroke-width:0.5;" width="15" x="382.2161" y="91"/><rect fill="#F5E6CC" height="2" style="stroke:#8B7355;stroke-width:0.5;" width="4" x="380.2161" y="93"/><rect fill="#F5E6CC" height="2" style="stroke:#8B7355;stroke-width:0.5;" width="4" x="380.2161" y="97"/><text fill="#000000" font-family="sans-serif" font-size="11" lengthAdjust="spacing" textLength="38.5161" x="338.7" y="117.4189">ipc-os.h</text></g><g class="entity" data-qualified-name="H2" data-source-line="20" id="ent0005"><rect fill="#F5E6CC" height="43.8359" rx="2.5" ry="2.5" style="stroke:#8B7355;stroke-width:0.5;" width="80.96" x="322.48" y="165"/><rect fill="#F5E6CC" height="10" style="stroke:#8B7355;stroke-width:0.5;" width="15" x="383.44" y="170"/><rect fill="#F5E6CC" height="2" style="stroke:#8B7355;stroke-width:0.5;" width="4" x="381.44" y="172"/><rect fill="#F5E6CC" height="2" style="stroke:#8B7355;stroke-width:0.5;" width="4" x="381.44" y="176"/><text fill="#000000" font-family="sans-serif" font-size="11" lengthAdjust="spacing" textLength="40.96" x="337.48" y="196.4189">ipc-hw.h</text></g><g class="link" data-entity-1="ent0002" data-entity-2="ent0003" data-link-type="dependency" data-source-line="21" id="lnk6"><path d="M178.72,85.6 C223.86,71.64 274.7682,55.8938 313.0282,44.0538" fill="none" id="SRC-to-H0" style="stroke:#5C4033;stroke-width:1;stroke-dasharray:7,7;"/><polygon fill="#5C4033" points="318.76,42.28,308.9798,41.1195,313.9835,43.7581,311.3448,48.7619,318.76,42.28" style="stroke:#5C4033;stroke-width:1;"/></g><g class="link" data-entity-1="ent0002" data-entity-2="ent0004" data-link-type="dependency" data-source-line="22" id="lnk7"><path d="M204.57,107.92 C246.07,107.92 286,107.92 317.47,107.92" fill="none" id="SRC-to-H1" style="stroke:#5C4033;stroke-width:1;stroke-dasharray:7,7;"/><polygon fill="#5C4033" points="323.47,107.92,314.47,103.92,318.47,107.92,314.47,111.92,323.47,107.92" style="stroke:#5C4033;stroke-width:1;"/></g><g class="link" data-entity-1="ent0002" data-entity-2="ent0005" data-link-type="dependency" data-source-line="23" id="lnk8"><path d="M178.72,130.24 C225.19,144.62 278.1079,160.9872 316.3579,172.8172" fill="none" id="SRC-to-H2" style="stroke:#5C4033;stroke-width:1;stroke-dasharray:7,7;"/><polygon fill="#5C4033" points="322.09,174.59,314.6737,168.1093,317.3132,173.1126,312.3099,175.7522,322.09,174.59" style="stroke:#5C4033;stroke-width:1;"/></g></g></svg>