<?plantuml 1.2026.2?><svg xmlns="http://www.w3.org/2000/svg" xmlns:xlink="http://www.w3.org/1999/xlink" contentStyleType="text/css" data-diagram-type="ACTIVITY" height="558px" preserveAspectRatio="none" style="width:446px;height:558px;background:#FFFFFF;" version="1.1" viewBox="0 0 446 558" width="446px" zoomAndPan="magnify"><defs/><g><ellipse cx="217.5508" cy="20" fill="#222222" rx="10" ry="10" style="stroke:#222222;stroke-width:1;"/><rect fill="#F1F1F1" height="35.0938" rx="12.5" ry="12.5" style="stroke:#181818;stroke-width:0.5;" width="274.4668" x="80.3174" y="173.6719"/><text fill="#000000" font-family="sans-serif" font-size="12" lengthAdjust="spacing" textLength="254.4668" x="90.3174" y="196.1289">read(info-&gt;uio_fd, &amp;irq_count, sizeof(irq_count))</text><polygon fill="#F1F1F1" points="217.5508,111.8359,281.8276,130.7539,217.5508,149.6719,153.2739,130.7539" style="stroke:#181818;stroke-width:0.5;"/><text fill="#000000" font-family="sans-serif" font-size="11" lengthAdjust="spacing" textLength="17.1177" x="221.5508" y="161.0908">yes</text><text fill="#000000" font-family="sans-serif" font-size="11" lengthAdjust="spacing" textLength="104.5537" x="165.2739" y="135.2549">info-&gt;rx_cb != NULL?</text><polygon fill="#F1F1F1" points="217.5508,228.7656,229.5508,240.7656,217.5508,252.7656,205.5508,240.7656,217.5508,228.7656" style="stroke:#181818;stroke-width:0.5;"/><rect fill="#F1F1F1" height="35.0938" rx="12.5" ry="12.5" style="stroke:#181818;stroke-width:0.5;" width="345.1016" x="45" y="317.6309"/><text fill="#000000" font-family="sans-serif" font-size="12" lengthAdjust="spacing" textLength="325.1016" x="55" y="340.0879">work = info-&gt;rx_cb(info-&gt;instance, IPC_SOFTIRQ_BUDGET)</text><rect fill="#F1F1F1" height="35.0938" rx="12.5" ry="12.5" style="stroke:#181818;stroke-width:0.5;" width="91.3672" x="171.8672" y="376.7656"/><text fill="#000000" font-family="sans-serif" font-size="12" lengthAdjust="spacing" textLength="71.3672" x="181.8672" y="399.2227">sched_yield()</text><polygon fill="#F1F1F1" points="217.5508,272.7656,229.5508,284.7656,217.5508,296.7656,205.5508,284.7656,217.5508,272.7656" style="stroke:#181818;stroke-width:0.5;"/><polygon fill="#F1F1F1" points="217.5508,431.8594,316.3503,450.7773,217.5508,469.6953,118.7512,450.7773" style="stroke:#181818;stroke-width:0.5;"/><text fill="#000000" font-family="sans-serif" font-size="11" lengthAdjust="spacing" textLength="173.5991" x="130.7512" y="455.2783">work &gt;= IPC_SOFTIRQ_BUDGET?</text><text fill="#000000" font-family="sans-serif" font-size="11" lengthAdjust="spacing" textLength="17.1177" x="316.3503" y="446.4424">yes</text><rect fill="#F1F1F1" height="35.0938" rx="12.5" ry="12.5" style="stroke:#181818;stroke-width:0.5;" width="193.0801" x="121.0107" y="489.6953"/><text fill="#000000" font-family="sans-serif" font-size="12" lengthAdjust="spacing" textLength="173.0801" x="131.0107" y="512.1523">ipcsHwIrqEnable(info-&gt;instance)</text><polygon fill="#F1F1F1" points="217.5508,50,235.6685,68.918,217.5508,87.8359,199.4331,68.918" style="stroke:#181818;stroke-width:0.5;"/><text fill="#000000" font-family="sans-serif" font-size="11" lengthAdjust="spacing" textLength="17.1177" x="221.5508" y="99.2549">yes</text><text fill="#000000" font-family="sans-serif" font-size="11" lengthAdjust="spacing" textLength="12.2354" x="211.4331" y="73.4189">1?</text><text fill="#000000" font-family="sans-serif" font-size="11" lengthAdjust="spacing" textLength="12.2354" x="187.1978" y="59.583">no</text><ellipse cx="24" cy="117.7539" fill="none" rx="11" ry="11" style="stroke:#222222;stroke-width:1;"/><ellipse cx="24" cy="117.7539" fill="#222222" rx="6" ry="6" style="stroke:#222222;stroke-width:1;"/><line style="stroke:#181818;stroke-width:1;" x1="217.5508" x2="217.5508" y1="149.6719" y2="173.6719"/><polygon fill="#181818" points="213.5508,163.6719,217.5508,173.6719,221.5508,163.6719,217.5508,167.6719" style="stroke:#181818;stroke-width:1;"/><line style="stroke:#181818;stroke-width:1;" x1="281.8276" x2="364.7842" y1="130.7539" y2="130.7539"/><polygon fill="#181818" points="360.7842,177.7598,364.7842,187.7598,368.7842,177.7598,364.7842,181.7598" style="stroke:#181818;stroke-width:1;"/><line style="stroke:#181818;stroke-width:1;" x1="364.7842" x2="364.7842" y1="130.7539" y2="240.7656"/><line style="stroke:#181818;stroke-width:1;" x1="364.7842" x2="229.5508" y1="240.7656" y2="240.7656"/><polygon fill="#181818" points="239.5508,236.7656,229.5508,240.7656,239.5508,244.7656,235.5508,240.7656" style="stroke:#181818;stroke-width:1;"/><line style="stroke:#181818;stroke-width:1;" x1="217.5508" x2="217.5508" y1="208.7656" y2="228.7656"/><polygon fill="#181818" points="213.5508,218.7656,217.5508,228.7656,221.5508,218.7656,217.5508,222.7656" style="stroke:#181818;stroke-width:1;"/><line style="stroke:#181818;stroke-width:1;" x1="217.5508" x2="217.5508" y1="352.7246" y2="376.7656"/><polygon fill="#181818" points="213.5508,366.7656,217.5508,376.7656,221.5508,366.7656,217.5508,370.7656" style="stroke:#181818;stroke-width:1;"/><line style="stroke:#181818;stroke-width:1;" x1="217.5508" x2="217.5508" y1="296.7656" y2="317.6309"/><polygon fill="#181818" points="213.5508,307.6309,217.5508,317.6309,221.5508,307.6309,217.5508,311.6309" style="stroke:#181818;stroke-width:1;"/><line style="stroke:#181818;stroke-width:1;" x1="316.3503" x2="402.1016" y1="450.7773" y2="450.7773"/><polygon fill="#181818" points="398.1016,372.7246,402.1016,362.7246,406.1016,372.7246,402.1016,368.7246" style="stroke:#181818;stroke-width:1;"/><line style="stroke:#181818;stroke-width:1;" x1="402.1016" x2="402.1016" y1="284.7656" y2="450.7773"/><line style="stroke:#181818;stroke-width:1;" x1="402.1016" x2="229.5508" y1="284.7656" y2="284.7656"/><polygon fill="#181818" points="239.5508,280.7656,229.5508,284.7656,239.5508,288.7656,235.5508,284.7656" style="stroke:#181818;stroke-width:1;"/><line style="stroke:#181818;stroke-width:1;" x1="217.5508" x2="217.5508" y1="411.8594" y2="431.8594"/><polygon fill="#181818" points="213.5508,421.8594,217.5508,431.8594,221.5508,421.8594,217.5508,425.8594" style="stroke:#181818;stroke-width:1;"/><line style="stroke:#181818;stroke-width:1;" x1="217.5508" x2="217.5508" y1="252.7656" y2="272.7656"/><polygon fill="#181818" points="213.5508,262.7656,217.5508,272.7656,221.5508,262.7656,217.5508,266.7656" style="stroke:#181818;stroke-width:1;"/><line style="stroke:#181818;stroke-width:1;" x1="217.5508" x2="217.5508" y1="469.6953" y2="489.6953"/><polygon fill="#181818" points="213.5508,479.6953,217.5508,489.6953,221.5508,479.6953,217.5508,483.6953" style="stroke:#181818;stroke-width:1;"/><line style="stroke:#181818;stroke-width:1;" x1="217.5508" x2="217.5508" y1="87.8359" y2="111.8359"/><polygon fill="#181818" points="213.5508,101.8359,217.5508,111.8359,221.5508,101.8359,217.5508,105.8359" style="stroke:#181818;stroke-width:1;"/><line style="stroke:#181818;stroke-width:1;" x1="217.5508" x2="217.5508" y1="524.7891" y2="534.7891"/><line style="stroke:#181818;stroke-width:1;" x1="217.5508" x2="420.1016" y1="534.7891" y2="534.7891"/><polygon fill="#181818" points="416.1016,316.7656,420.1016,306.7656,424.1016,316.7656,420.1016,312.7656" style="stroke:#181818;stroke-width:1;"/><line style="stroke:#181818;stroke-width:1;" x1="420.1016" x2="420.1016" y1="68.918" y2="534.7891"/><line style="stroke:#181818;stroke-width:1;" x1="420.1016" x2="235.6685" y1="68.918" y2="68.918"/><polygon fill="#181818" points="245.6685,64.918,235.6685,68.918,245.6685,72.918,241.6685,68.918" style="stroke:#181818;stroke-width:1;"/><line style="stroke:#181818;stroke-width:1;" x1="199.4331" x2="24" y1="68.918" y2="68.918"/><line style="stroke:#181818;stroke-width:1;" x1="24" x2="24" y1="68.918" y2="106.7539"/><polygon fill="#181818" points="20,96.7539,24,106.7539,28,96.7539,24,100.7539" style="stroke:#181818;stroke-width:1;"/><line style="stroke:#181818;stroke-width:1;" x1="217.5508" x2="217.5508" y1="30" y2="50"/><polygon fill="#181818" points="213.5508,40,217.5508,50,221.5508,40,217.5508,44" style="stroke:#181818;stroke-width:1;"/><?plantuml-src RP3DQiCm48JlVehDfTZW7dfDSGfjqjOG-fVaB1HfNI-n9KMISTsdx-AOa9QU1CFCfvcTEIy_MmcD76mN8RGOfP59E91nqiiMb3MQ8bcpYKE3G2QGnYN9blKBMqC6u-0Gh8-rJKAKFYPzJHn9R-uoe03fW25B0AY2b4nbhnV-IwWzp0fusQtNR8erchCDOEvHwidQaHMLpk6A_54esvcOGw1lj5LwLhBibdF8VIj-FJgKyGJghJz00HU_JbYUmtiLvb2-FOZDw-Es_7WNzxlbqsexqZWSL8rQ38IDJaVjH8PftSXU5Fy0Vi-UarFXkI_zSMNali4_3PZCpIUciHcVqBeV?></g></svg>